<svg width="228" height="329" viewBox="0 0 228 329" fill="none" xmlns="http://www.w3.org/2000/svg">
<path d="M13.728 153.932C14.624 154.092 15.384 154.564 16.008 155.348C16.632 156.132 16.944 157.02 16.944 158.012C16.944 158.86 16.72 159.628 16.272 160.316C15.84 160.988 15.208 161.524 14.376 161.924C13.544 162.308 12.576 162.5 11.472 162.5H4.8V145.82H11.16C12.296 145.82 13.272 146.012 14.088 146.396C14.904 146.78 15.52 147.3 15.936 147.956C16.352 148.596 16.56 149.316 16.56 150.116C16.56 151.076 16.304 151.876 15.792 152.516C15.28 153.156 14.592 153.628 13.728 153.932ZM7.536 152.828H10.92C11.816 152.828 12.512 152.628 13.008 152.228C13.52 151.812 13.776 151.22 13.776 150.452C13.776 149.7 13.52 149.116 13.008 148.7C12.512 148.268 11.816 148.052 10.92 148.052H7.536V152.828ZM11.232 160.268C12.16 160.268 12.888 160.044 13.416 159.596C13.944 159.148 14.208 158.524 14.208 157.724C14.208 156.908 13.928 156.26 13.368 155.78C12.808 155.3 12.064 155.06 11.136 155.06H7.536V160.268H11.232ZM32.0372 155.564C32.0372 156.06 32.0052 156.508 31.9412 156.908H21.8372C21.9172 157.964 22.3092 158.812 23.0132 159.452C23.7172 160.092 24.5812 160.412 25.6052 160.412C27.0772 160.412 28.1172 159.796 28.7252 158.564H31.6772C31.2772 159.78 30.5492 160.78 29.4932 161.564C28.4532 162.332 27.1572 162.716 25.6052 162.716C24.3412 162.716 23.2052 162.436 22.1972 161.876C21.2052 161.3 20.4212 160.5 19.8452 159.476C19.2852 158.436 19.0052 157.236 19.0052 155.876C19.0052 154.516 19.2772 153.324 19.8212 152.3C20.3812 151.26 21.1572 150.46 22.1492 149.9C23.1572 149.34 24.3092 149.06 25.6052 149.06C26.8532 149.06 27.9652 149.332 28.9412 149.876C29.9172 150.42 30.6772 151.188 31.2212 152.18C31.7652 153.156 32.0372 154.284 32.0372 155.564ZM29.1812 154.7C29.1652 153.692 28.8052 152.884 28.1012 152.276C27.3972 151.668 26.5252 151.364 25.4852 151.364C24.5412 151.364 23.7332 151.668 23.0612 152.276C22.3892 152.868 21.9892 153.676 21.8612 154.7H29.1812ZM39.5297 162.716C38.4897 162.716 37.5537 162.532 36.7217 162.164C35.9057 161.78 35.2577 161.268 34.7777 160.628C34.2977 159.972 34.0417 159.244 34.0097 158.444H36.8417C36.8897 159.004 37.1537 159.476 37.6337 159.86C38.1297 160.228 38.7457 160.412 39.4817 160.412C40.2497 160.412 40.8417 160.268 41.2577 159.98C41.6897 159.676 41.9057 159.292 41.9057 158.828C41.9057 158.332 41.6657 157.964 41.1857 157.724C40.7217 157.484 39.9777 157.22 38.9537 156.932C37.9617 156.66 37.1537 156.396 36.5297 156.14C35.9057 155.884 35.3617 155.492 34.8977 154.964C34.4497 154.436 34.2257 153.74 34.2257 152.876C34.2257 152.172 34.4337 151.532 34.8497 150.956C35.2657 150.364 35.8577 149.9 36.6257 149.564C37.4097 149.228 38.3057 149.06 39.3137 149.06C40.8177 149.06 42.0257 149.444 42.9377 150.212C43.8657 150.964 44.3617 151.996 44.4257 153.308H41.6897C41.6417 152.716 41.4017 152.244 40.9697 151.892C40.5377 151.54 39.9537 151.364 39.2177 151.364C38.4977 151.364 37.9457 151.5 37.5617 151.772C37.1777 152.044 36.9857 152.404 36.9857 152.852C36.9857 153.204 37.1137 153.5 37.3697 153.74C37.6257 153.98 37.9377 154.172 38.3057 154.316C38.6737 154.444 39.2177 154.612 39.9377 154.82C40.8977 155.076 41.6817 155.34 42.2897 155.612C42.9137 155.868 43.4497 156.252 43.8977 156.764C44.3457 157.276 44.5777 157.956 44.5937 158.804C44.5937 159.556 44.3857 160.228 43.9697 160.82C43.5537 161.412 42.9617 161.876 42.1937 162.212C41.4417 162.548 40.5537 162.716 39.5297 162.716ZM50.742 151.508V158.828C50.742 159.324 50.854 159.684 51.078 159.908C51.318 160.116 51.718 160.22 52.278 160.22H53.958V162.5H51.798C50.566 162.5 49.622 162.212 48.966 161.636C48.31 161.06 47.982 160.124 47.982 158.828V151.508H46.422V149.276H47.982V145.988H50.742V149.276H53.958V151.508H50.742ZM68.2101 162.668C67.0901 162.668 66.0821 162.476 65.1861 162.092C64.2901 161.692 63.5861 161.132 63.0741 160.412C62.5621 159.692 62.3061 158.852 62.3061 157.892H65.2341C65.2981 158.612 65.5781 159.204 66.0741 159.668C66.5861 160.132 67.2981 160.364 68.2101 160.364C69.1541 160.364 69.8901 160.14 70.4181 159.692C70.9461 159.228 71.2101 158.636 71.2101 157.916C71.2101 157.356 71.0421 156.9 70.7061 156.548C70.3861 156.196 69.9781 155.924 69.4821 155.732C69.0021 155.54 68.3301 155.332 67.4661 155.108C66.3781 154.82 65.4901 154.532 64.8021 154.244C64.1301 153.94 63.5541 153.476 63.0741 152.852C62.5941 152.228 62.3541 151.396 62.3541 150.356C62.3541 149.396 62.5941 148.556 63.0741 147.836C63.5541 147.116 64.2261 146.564 65.0901 146.18C65.9541 145.796 66.9541 145.604 68.0901 145.604C69.7061 145.604 71.0261 146.012 72.0501 146.828C73.0901 147.628 73.6661 148.732 73.7781 150.14H70.7541C70.7061 149.532 70.4181 149.012 69.8901 148.58C69.3621 148.148 68.6661 147.932 67.8021 147.932C67.0181 147.932 66.3781 148.132 65.8821 148.532C65.3861 148.932 65.1381 149.508 65.1381 150.26C65.1381 150.772 65.2901 151.196 65.5941 151.532C65.9141 151.852 66.3141 152.108 66.7941 152.3C67.2741 152.492 67.9301 152.7 68.7621 152.924C69.8661 153.228 70.7621 153.532 71.4501 153.836C72.1541 154.14 72.7461 154.612 73.2261 155.252C73.7221 155.876 73.9701 156.716 73.9701 157.772C73.9701 158.62 73.7381 159.42 73.2741 160.172C72.8261 160.924 72.1621 161.532 71.2821 161.996C70.4181 162.444 69.3941 162.668 68.2101 162.668ZM82.9344 162.716C81.6864 162.716 80.5584 162.436 79.5504 161.876C78.5424 161.3 77.7504 160.5 77.1744 159.476C76.5984 158.436 76.3104 157.236 76.3104 155.876C76.3104 154.532 76.6064 153.34 77.1984 152.3C77.7904 151.26 78.5984 150.46 79.6224 149.9C80.6464 149.34 81.7904 149.06 83.0544 149.06C84.3184 149.06 85.4624 149.34 86.4864 149.9C87.5104 150.46 88.3184 151.26 88.9104 152.3C89.5024 153.34 89.7984 154.532 89.7984 155.876C89.7984 157.22 89.4944 158.412 88.8864 159.452C88.2784 160.492 87.4464 161.3 86.3904 161.876C85.3504 162.436 84.1984 162.716 82.9344 162.716ZM82.9344 160.34C83.6384 160.34 84.2944 160.172 84.9024 159.836C85.5264 159.5 86.0304 158.996 86.4144 158.324C86.7984 157.652 86.9904 156.836 86.9904 155.876C86.9904 154.916 86.8064 154.108 86.4384 153.452C86.0704 152.78 85.5824 152.276 84.9744 151.94C84.3664 151.604 83.7104 151.436 83.0064 151.436C82.3024 151.436 81.6464 151.604 81.0384 151.94C80.4464 152.276 79.9744 152.78 79.6224 153.452C79.2704 154.108 79.0944 154.916 79.0944 155.876C79.0944 157.3 79.4544 158.404 80.1744 159.188C80.9104 159.956 81.8304 160.34 82.9344 160.34ZM95.2391 144.74V162.5H92.5031V144.74H95.2391ZM110.807 149.276V162.5H108.071V160.94C107.639 161.484 107.071 161.916 106.367 162.236C105.679 162.54 104.943 162.692 104.159 162.692C103.119 162.692 102.183 162.476 101.351 162.044C100.535 161.612 99.8873 160.972 99.4073 160.124C98.9433 159.276 98.7113 158.252 98.7113 157.052V149.276H101.423V156.644C101.423 157.828 101.719 158.74 102.311 159.38C102.903 160.004 103.711 160.316 104.735 160.316C105.759 160.316 106.567 160.004 107.159 159.38C107.767 158.74 108.071 157.828 108.071 156.644V149.276H110.807ZM117.609 151.508V158.828C117.609 159.324 117.721 159.684 117.945 159.908C118.185 160.116 118.585 160.22 119.145 160.22H120.825V162.5H118.665C117.433 162.5 116.489 162.212 115.833 161.636C115.177 161.06 114.849 160.124 114.849 158.828V151.508H113.289V149.276H114.849V145.988H117.609V149.276H120.825V151.508H117.609ZM124.739 147.524C124.243 147.524 123.827 147.356 123.491 147.02C123.155 146.684 122.987 146.268 122.987 145.772C122.987 145.276 123.155 144.86 123.491 144.524C123.827 144.188 124.243 144.02 124.739 144.02C125.219 144.02 125.627 144.188 125.963 144.524C126.299 144.86 126.467 145.276 126.467 145.772C126.467 146.268 126.299 146.684 125.963 147.02C125.627 147.356 125.219 147.524 124.739 147.524ZM126.083 149.276V162.5H123.347V149.276H126.083ZM135.411 162.716C134.163 162.716 133.035 162.436 132.027 161.876C131.019 161.3 130.227 160.5 129.651 159.476C129.075 158.436 128.787 157.236 128.787 155.876C128.787 154.532 129.083 153.34 129.675 152.3C130.267 151.26 131.075 150.46 132.099 149.9C133.123 149.34 134.267 149.06 135.531 149.06C136.795 149.06 137.939 149.34 138.963 149.9C139.987 150.46 140.795 151.26 141.387 152.3C141.979 153.34 142.275 154.532 142.275 155.876C142.275 157.22 141.971 158.412 141.363 159.452C140.755 160.492 139.923 161.3 138.867 161.876C137.827 162.436 136.675 162.716 135.411 162.716ZM135.411 160.34C136.115 160.34 136.771 160.172 137.379 159.836C138.003 159.5 138.507 158.996 138.891 158.324C139.275 157.652 139.467 156.836 139.467 155.876C139.467 154.916 139.283 154.108 138.915 153.452C138.547 152.78 138.059 152.276 137.451 151.94C136.843 151.604 136.187 151.436 135.483 151.436C134.779 151.436 134.123 151.604 133.515 151.94C132.923 152.276 132.451 152.78 132.099 153.452C131.747 154.108 131.571 154.916 131.571 155.876C131.571 157.3 131.931 158.404 132.651 159.188C133.387 159.956 134.307 160.34 135.411 160.34ZM151.652 149.06C152.692 149.06 153.62 149.276 154.436 149.708C155.268 150.14 155.916 150.78 156.38 151.628C156.844 152.476 157.076 153.5 157.076 154.7V162.5H154.364V155.108C154.364 153.924 154.068 153.02 153.476 152.396C152.884 151.756 152.076 151.436 151.052 151.436C150.028 151.436 149.212 151.756 148.604 152.396C148.012 153.02 147.716 153.924 147.716 155.108V162.5H144.98V149.276H147.716V150.788C148.164 150.244 148.732 149.82 149.42 149.516C150.124 149.212 150.868 149.06 151.652 149.06ZM165.366 162.716C164.326 162.716 163.39 162.532 162.558 162.164C161.742 161.78 161.094 161.268 160.614 160.628C160.134 159.972 159.878 159.244 159.846 158.444H162.678C162.726 159.004 162.99 159.476 163.47 159.86C163.966 160.228 164.582 160.412 165.318 160.412C166.086 160.412 166.678 160.268 167.094 159.98C167.526 159.676 167.742 159.292 167.742 158.828C167.742 158.332 167.502 157.964 167.022 157.724C166.558 157.484 165.814 157.22 164.79 156.932C163.798 156.66 162.99 156.396 162.366 156.14C161.742 155.884 161.198 155.492 160.734 154.964C160.286 154.436 160.062 153.74 160.062 152.876C160.062 152.172 160.27 151.532 160.686 150.956C161.102 150.364 161.694 149.9 162.462 149.564C163.246 149.228 164.142 149.06 165.15 149.06C166.654 149.06 167.862 149.444 168.774 150.212C169.702 150.964 170.198 151.996 170.262 153.308H167.526C167.478 152.716 167.238 152.244 166.806 151.892C166.374 151.54 165.79 151.364 165.054 151.364C164.334 151.364 163.782 151.5 163.398 151.772C163.014 152.044 162.822 152.404 162.822 152.852C162.822 153.204 162.95 153.5 163.206 153.74C163.462 153.98 163.774 154.172 164.142 154.316C164.51 154.444 165.054 154.612 165.774 154.82C166.734 155.076 167.518 155.34 168.126 155.612C168.75 155.868 169.286 156.252 169.734 156.764C170.182 157.276 170.414 157.956 170.43 158.804C170.43 159.556 170.222 160.228 169.806 160.82C169.39 161.412 168.798 161.876 168.03 162.212C167.278 162.548 166.39 162.716 165.366 162.716Z" fill="#7141B1"/>
<path d="M5.986 212.75L1.54 200.06H3.088L6.994 211.49H6.364L10.342 200.06H11.53L15.454 211.49H14.896L18.82 200.06H20.296L15.85 212.75H14.536L10.72 201.77H11.116L7.264 212.75H5.986ZM25.0659 212.912C24.1419 212.912 23.3439 212.732 22.6719 212.372C22.0119 212 21.4959 211.478 21.1239 210.806C20.7639 210.134 20.5839 209.33 20.5839 208.394C20.5839 207.482 20.7639 206.69 21.1239 206.018C21.4839 205.334 21.9759 204.8 22.5999 204.416C23.2359 204.032 23.9679 203.84 24.7959 203.84C25.5879 203.84 26.2659 204.014 26.8299 204.362C27.3939 204.71 27.8259 205.202 28.1259 205.838C28.4379 206.474 28.5939 207.236 28.5939 208.124V208.682H21.6999V207.728H27.6219L27.3339 207.962C27.3339 207.002 27.1179 206.258 26.6859 205.73C26.2659 205.19 25.6479 204.92 24.8319 204.92C24.2199 204.92 23.6979 205.064 23.2659 205.352C22.8459 205.628 22.5279 206.018 22.3119 206.522C22.0959 207.014 21.9879 207.59 21.9879 208.25V208.358C21.9879 209.09 22.1019 209.708 22.3299 210.212C22.5699 210.716 22.9239 211.1 23.3919 211.364C23.8599 211.616 24.4179 211.742 25.0659 211.742C25.5819 211.742 26.0799 211.664 26.5599 211.508C27.0519 211.34 27.5139 211.07 27.9459 210.698L28.4499 211.724C28.0539 212.084 27.5499 212.372 26.9379 212.588C26.3259 212.804 25.7019 212.912 25.0659 212.912ZM35.327 215.99V204.002H36.749V206.072H36.569C36.761 205.388 37.139 204.848 37.703 204.452C38.279 204.044 38.963 203.84 39.755 203.84C40.535 203.84 41.213 204.026 41.789 204.398C42.377 204.758 42.827 205.28 43.139 205.964C43.463 206.636 43.625 207.44 43.625 208.376C43.625 209.3 43.463 210.104 43.139 210.788C42.827 211.46 42.383 211.982 41.807 212.354C41.231 212.726 40.547 212.912 39.755 212.912C38.963 212.912 38.285 212.714 37.721 212.318C37.157 211.91 36.773 211.37 36.569 210.698H36.785V215.99H35.327ZM39.449 211.742C40.277 211.742 40.931 211.454 41.411 210.878C41.903 210.29 42.149 209.456 42.149 208.376C42.149 207.284 41.903 206.45 41.411 205.874C40.931 205.298 40.277 205.01 39.449 205.01C38.633 205.01 37.979 205.298 37.487 205.874C36.995 206.45 36.749 207.284 36.749 208.376C36.749 209.456 36.995 210.29 37.487 210.878C37.979 211.454 38.633 211.742 39.449 211.742ZM45.8211 212.75V204.002H47.2431V206.072H47.0631C47.2671 205.364 47.6211 204.83 48.1251 204.47C48.6291 204.098 49.2951 203.882 50.1231 203.822L50.6451 203.768L50.7531 205.028L49.8351 205.136C49.0191 205.208 48.3891 205.472 47.9451 205.928C47.5131 206.372 47.2971 206.984 47.2971 207.764V212.75H45.8211ZM55.8028 212.912C54.9508 212.912 54.2128 212.726 53.5888 212.354C52.9648 211.982 52.4788 211.46 52.1308 210.788C51.7948 210.104 51.6268 209.3 51.6268 208.376C51.6268 207.452 51.7948 206.654 52.1308 205.982C52.4788 205.298 52.9648 204.77 53.5888 204.398C54.2128 204.026 54.9508 203.84 55.8028 203.84C56.6548 203.84 57.3928 204.026 58.0168 204.398C58.6408 204.77 59.1208 205.298 59.4568 205.982C59.8048 206.654 59.9788 207.452 59.9788 208.376C59.9788 209.3 59.8048 210.104 59.4568 210.788C59.1208 211.46 58.6408 211.982 58.0168 212.354C57.3928 212.726 56.6548 212.912 55.8028 212.912ZM55.8028 211.742C56.6308 211.742 57.2848 211.454 57.7648 210.878C58.2568 210.29 58.5028 209.45 58.5028 208.358C58.5028 207.278 58.2568 206.45 57.7648 205.874C57.2848 205.298 56.6308 205.01 55.8028 205.01C54.9868 205.01 54.3328 205.298 53.8408 205.874C53.3488 206.45 53.1028 207.278 53.1028 208.358C53.1028 209.45 53.3488 210.29 53.8408 210.878C54.3328 211.454 54.9868 211.742 55.8028 211.742ZM64.6197 212.75L60.8577 204.002H62.4417L65.5737 211.67H65.0877L68.2737 204.002H69.7677L65.9877 212.75H64.6197ZM71.1294 201.824V200.186H72.9294V201.824H71.1294ZM71.3094 212.75V204.002H72.7674V212.75H71.3094ZM78.823 212.912C78.043 212.912 77.359 212.726 76.771 212.354C76.195 211.982 75.745 211.46 75.421 210.788C75.109 210.104 74.953 209.3 74.953 208.376C74.953 207.44 75.109 206.636 75.421 205.964C75.745 205.28 76.195 204.758 76.771 204.398C77.359 204.026 78.043 203.84 78.823 203.84C79.615 203.84 80.293 204.038 80.857 204.434C81.421 204.83 81.799 205.364 81.991 206.036H81.793V200.06H83.251V212.75H81.829V210.662H82.009C81.817 211.346 81.433 211.892 80.857 212.3C80.293 212.708 79.615 212.912 78.823 212.912ZM79.129 211.742C79.957 211.742 80.611 211.454 81.091 210.878C81.583 210.29 81.829 209.456 81.829 208.376C81.829 207.284 81.583 206.45 81.091 205.874C80.611 205.298 79.957 205.01 79.129 205.01C78.313 205.01 77.659 205.298 77.167 205.874C76.675 206.45 76.429 207.284 76.429 208.376C76.429 209.456 76.675 210.29 77.167 210.878C77.659 211.454 78.313 211.742 79.129 211.742ZM89.9291 212.912C89.0051 212.912 88.2071 212.732 87.5351 212.372C86.8751 212 86.3591 211.478 85.9871 210.806C85.6271 210.134 85.4471 209.33 85.4471 208.394C85.4471 207.482 85.6271 206.69 85.9871 206.018C86.3471 205.334 86.8391 204.8 87.4631 204.416C88.0991 204.032 88.8311 203.84 89.6591 203.84C90.4511 203.84 91.1291 204.014 91.6931 204.362C92.2571 204.71 92.6891 205.202 92.9891 205.838C93.3011 206.474 93.4571 207.236 93.4571 208.124V208.682H86.5631V207.728H92.4851L92.1971 207.962C92.1971 207.002 91.9811 206.258 91.5491 205.73C91.1291 205.19 90.5111 204.92 89.6951 204.92C89.0831 204.92 88.5611 205.064 88.1291 205.352C87.7091 205.628 87.3911 206.018 87.1751 206.522C86.9591 207.014 86.8511 207.59 86.8511 208.25V208.358C86.8511 209.09 86.9651 209.708 87.1931 210.212C87.4331 210.716 87.7871 211.1 88.2551 211.364C88.7231 211.616 89.2811 211.742 89.9291 211.742C90.4451 211.742 90.9431 211.664 91.4231 211.508C91.9151 211.34 92.3771 211.07 92.8091 210.698L93.3131 211.724C92.9171 212.084 92.4131 212.372 91.8011 212.588C91.1891 212.804 90.5651 212.912 89.9291 212.912ZM103.7 212.912C102.668 212.912 101.894 212.636 101.378 212.084C100.862 211.532 100.604 210.746 100.604 209.726V205.136H98.8943V204.002H100.604V201.32H102.062V204.002H104.834V205.136H102.062V209.582C102.062 210.266 102.206 210.788 102.494 211.148C102.782 211.496 103.25 211.67 103.898 211.67C104.09 211.67 104.282 211.646 104.474 211.598C104.666 211.55 104.84 211.502 104.996 211.454L105.248 212.57C105.092 212.654 104.864 212.732 104.564 212.804C104.264 212.876 103.976 212.912 103.7 212.912ZM106.483 212.75V200.06H107.941V205.946H107.707C107.959 205.25 108.367 204.728 108.931 204.38C109.507 204.02 110.167 203.84 110.911 203.84C111.607 203.84 112.183 203.966 112.639 204.218C113.107 204.47 113.455 204.854 113.683 205.37C113.911 205.874 114.025 206.516 114.025 207.296V212.75H112.567V207.386C112.567 206.846 112.495 206.402 112.351 206.054C112.219 205.706 112.003 205.448 111.703 205.28C111.415 205.112 111.037 205.028 110.569 205.028C110.041 205.028 109.579 205.142 109.183 205.37C108.787 205.598 108.481 205.916 108.265 206.324C108.049 206.732 107.941 207.212 107.941 207.764V212.75H106.483ZM120.656 212.912C119.732 212.912 118.934 212.732 118.262 212.372C117.602 212 117.086 211.478 116.714 210.806C116.354 210.134 116.174 209.33 116.174 208.394C116.174 207.482 116.354 206.69 116.714 206.018C117.074 205.334 117.566 204.8 118.19 204.416C118.826 204.032 119.558 203.84 120.386 203.84C121.178 203.84 121.856 204.014 122.42 204.362C122.984 204.71 123.416 205.202 123.716 205.838C124.028 206.474 124.184 207.236 124.184 208.124V208.682H117.29V207.728H123.212L122.924 207.962C122.924 207.002 122.708 206.258 122.276 205.73C121.856 205.19 121.238 204.92 120.422 204.92C119.81 204.92 119.288 205.064 118.856 205.352C118.436 205.628 118.118 206.018 117.902 206.522C117.686 207.014 117.578 207.59 117.578 208.25V208.358C117.578 209.09 117.692 209.708 117.92 210.212C118.16 210.716 118.514 211.1 118.982 211.364C119.45 211.616 120.008 211.742 120.656 211.742C121.172 211.742 121.67 211.664 122.15 211.508C122.642 211.34 123.104 211.07 123.536 210.698L124.04 211.724C123.644 212.084 123.14 212.372 122.528 212.588C121.916 212.804 121.292 212.912 120.656 212.912ZM135.345 212.912C134.553 212.912 133.869 212.708 133.293 212.3C132.729 211.892 132.351 211.346 132.159 210.662H132.339V212.75H130.917V200.06H132.375V206.036H132.159C132.363 205.364 132.747 204.83 133.311 204.434C133.875 204.038 134.553 203.84 135.345 203.84C136.137 203.84 136.821 204.026 137.397 204.398C137.973 204.758 138.417 205.28 138.729 205.964C139.053 206.636 139.215 207.44 139.215 208.376C139.215 209.3 139.053 210.104 138.729 210.788C138.417 211.46 137.967 211.982 137.379 212.354C136.803 212.726 136.125 212.912 135.345 212.912ZM135.039 211.742C135.867 211.742 136.521 211.454 137.001 210.878C137.493 210.29 137.739 209.456 137.739 208.376C137.739 207.284 137.493 206.45 137.001 205.874C136.521 205.298 135.867 205.01 135.039 205.01C134.223 205.01 133.569 205.298 133.077 205.874C132.585 206.45 132.339 207.284 132.339 208.376C132.339 209.456 132.585 210.29 133.077 210.878C133.569 211.454 134.223 211.742 135.039 211.742ZM145.353 212.912C144.429 212.912 143.631 212.732 142.959 212.372C142.299 212 141.783 211.478 141.411 210.806C141.051 210.134 140.871 209.33 140.871 208.394C140.871 207.482 141.051 206.69 141.411 206.018C141.771 205.334 142.263 204.8 142.887 204.416C143.523 204.032 144.255 203.84 145.083 203.84C145.875 203.84 146.553 204.014 147.117 204.362C147.681 204.71 148.113 205.202 148.413 205.838C148.725 206.474 148.881 207.236 148.881 208.124V208.682H141.987V207.728H147.909L147.621 207.962C147.621 207.002 147.405 206.258 146.973 205.73C146.553 205.19 145.935 204.92 145.119 204.92C144.507 204.92 143.985 205.064 143.553 205.352C143.133 205.628 142.815 206.018 142.599 206.522C142.383 207.014 142.275 207.59 142.275 208.25V208.358C142.275 209.09 142.389 209.708 142.617 210.212C142.857 210.716 143.211 211.1 143.679 211.364C144.147 211.616 144.705 211.742 145.353 211.742C145.869 211.742 146.367 211.664 146.847 211.508C147.339 211.34 147.801 211.07 148.233 210.698L148.737 211.724C148.341 212.084 147.837 212.372 147.225 212.588C146.613 212.804 145.989 212.912 145.353 212.912ZM153.943 212.912C153.487 212.912 153.043 212.864 152.611 212.768C152.191 212.684 151.795 212.564 151.423 212.408C151.063 212.24 150.751 212.042 150.487 211.814L150.955 210.788C151.243 211.016 151.555 211.208 151.891 211.364C152.227 211.508 152.569 211.616 152.917 211.688C153.265 211.76 153.619 211.796 153.979 211.796C154.663 211.796 155.179 211.67 155.527 211.418C155.875 211.166 156.049 210.824 156.049 210.392C156.049 210.056 155.935 209.792 155.707 209.6C155.479 209.396 155.119 209.24 154.627 209.132L152.989 208.772C152.233 208.616 151.669 208.346 151.297 207.962C150.937 207.578 150.757 207.08 150.757 206.468C150.757 205.928 150.895 205.466 151.171 205.082C151.459 204.686 151.861 204.38 152.377 204.164C152.893 203.948 153.493 203.84 154.177 203.84C154.585 203.84 154.975 203.882 155.347 203.966C155.719 204.05 156.067 204.176 156.391 204.344C156.727 204.5 157.015 204.698 157.255 204.938L156.769 205.964C156.541 205.748 156.283 205.568 155.995 205.424C155.707 205.268 155.407 205.154 155.095 205.082C154.795 204.998 154.489 204.956 154.177 204.956C153.505 204.956 152.995 205.088 152.647 205.352C152.299 205.616 152.125 205.964 152.125 206.396C152.125 206.732 152.233 207.008 152.449 207.224C152.665 207.44 153.001 207.596 153.457 207.692L155.095 208.034C155.875 208.202 156.457 208.472 156.841 208.844C157.237 209.204 157.435 209.696 157.435 210.32C157.435 210.848 157.291 211.31 157.003 211.706C156.715 212.09 156.307 212.39 155.779 212.606C155.263 212.81 154.651 212.912 153.943 212.912ZM163.079 212.912C162.047 212.912 161.273 212.636 160.757 212.084C160.241 211.532 159.983 210.746 159.983 209.726V205.136H158.273V204.002H159.983V201.32H161.441V204.002H164.213V205.136H161.441V209.582C161.441 210.266 161.585 210.788 161.873 211.148C162.161 211.496 162.629 211.67 163.277 211.67C163.469 211.67 163.661 211.646 163.853 211.598C164.045 211.55 164.219 211.502 164.375 211.454L164.627 212.57C164.471 212.654 164.243 212.732 163.943 212.804C163.643 212.876 163.355 212.912 163.079 212.912ZM174.193 212.912C173.317 212.912 172.561 212.72 171.925 212.336C171.289 211.952 170.797 211.418 170.449 210.734C170.113 210.038 169.945 209.234 169.945 208.322C169.945 207.398 170.113 206.6 170.449 205.928C170.797 205.256 171.289 204.74 171.925 204.38C172.561 204.02 173.317 203.84 174.193 203.84C174.733 203.84 175.267 203.936 175.795 204.128C176.323 204.32 176.761 204.59 177.109 204.938L176.605 206C176.257 205.664 175.873 205.418 175.453 205.262C175.045 205.106 174.655 205.028 174.283 205.028C173.371 205.028 172.669 205.316 172.177 205.892C171.685 206.456 171.439 207.272 171.439 208.34C171.439 209.384 171.685 210.212 172.177 210.824C172.669 211.424 173.371 211.724 174.283 211.724C174.655 211.724 175.045 211.646 175.453 211.49C175.873 211.334 176.257 211.082 176.605 210.734L177.109 211.796C176.761 212.144 176.317 212.42 175.777 212.624C175.249 212.816 174.721 212.912 174.193 212.912ZM181.499 212.912C180.611 212.912 179.939 212.648 179.483 212.12C179.039 211.592 178.817 210.836 178.817 209.852V200.06H180.275V209.744C180.275 210.164 180.329 210.518 180.437 210.806C180.557 211.094 180.731 211.31 180.959 211.454C181.187 211.598 181.469 211.67 181.805 211.67C181.949 211.67 182.087 211.664 182.219 211.652C182.363 211.628 182.495 211.598 182.615 211.562L182.579 212.786C182.387 212.822 182.201 212.852 182.021 212.876C181.853 212.9 181.679 212.912 181.499 212.912ZM187.692 212.912C186.84 212.912 186.102 212.726 185.478 212.354C184.854 211.982 184.368 211.46 184.02 210.788C183.684 210.104 183.516 209.3 183.516 208.376C183.516 207.452 183.684 206.654 184.02 205.982C184.368 205.298 184.854 204.77 185.478 204.398C186.102 204.026 186.84 203.84 187.692 203.84C188.544 203.84 189.282 204.026 189.906 204.398C190.53 204.77 191.01 205.298 191.346 205.982C191.694 206.654 191.868 207.452 191.868 208.376C191.868 209.3 191.694 210.104 191.346 210.788C191.01 211.46 190.53 211.982 189.906 212.354C189.282 212.726 188.544 212.912 187.692 212.912ZM187.692 211.742C188.52 211.742 189.174 211.454 189.654 210.878C190.146 210.29 190.392 209.45 190.392 208.358C190.392 207.278 190.146 206.45 189.654 205.874C189.174 205.298 188.52 205.01 187.692 205.01C186.876 205.01 186.222 205.298 185.73 205.874C185.238 206.45 184.992 207.278 184.992 208.358C184.992 209.45 185.238 210.29 185.73 210.878C186.222 211.454 186.876 211.742 187.692 211.742ZM197.153 212.912C196.445 212.912 195.857 212.786 195.389 212.534C194.933 212.27 194.585 211.88 194.345 211.364C194.117 210.848 194.003 210.206 194.003 209.438V204.002H195.461V209.42C195.461 209.936 195.527 210.368 195.659 210.716C195.803 211.052 196.025 211.304 196.325 211.472C196.625 211.628 196.997 211.706 197.441 211.706C197.945 211.706 198.383 211.592 198.755 211.364C199.127 211.136 199.421 210.818 199.637 210.41C199.853 210.002 199.961 209.522 199.961 208.97V204.002H201.419V212.75H199.997V210.734H200.231C199.991 211.442 199.595 211.982 199.043 212.354C198.503 212.726 197.873 212.912 197.153 212.912ZM207.477 212.912C206.697 212.912 206.013 212.726 205.425 212.354C204.849 211.982 204.399 211.46 204.075 210.788C203.763 210.104 203.607 209.3 203.607 208.376C203.607 207.44 203.763 206.636 204.075 205.964C204.399 205.28 204.849 204.758 205.425 204.398C206.013 204.026 206.697 203.84 207.477 203.84C208.269 203.84 208.947 204.038 209.511 204.434C210.075 204.83 210.453 205.364 210.645 206.036H210.447V200.06H211.905V212.75H210.483V210.662H210.663C210.471 211.346 210.087 211.892 209.511 212.3C208.947 212.708 208.269 212.912 207.477 212.912ZM207.783 211.742C208.611 211.742 209.265 211.454 209.745 210.878C210.237 210.29 210.483 209.456 210.483 208.376C210.483 207.284 210.237 206.45 209.745 205.874C209.265 205.298 208.611 205.01 207.783 205.01C206.967 205.01 206.313 205.298 205.821 205.874C205.329 206.45 205.083 207.284 205.083 208.376C205.083 209.456 205.329 210.29 205.821 210.878C206.313 211.454 206.967 211.742 207.783 211.742ZM2.404 239.75V231.002H3.826V232.946H3.628C3.772 232.502 3.982 232.124 4.258 231.812C4.546 231.488 4.882 231.248 5.266 231.092C5.662 230.924 6.094 230.84 6.562 230.84C7.306 230.84 7.906 231.02 8.362 231.38C8.83 231.728 9.142 232.274 9.298 233.018H9.028C9.244 232.346 9.628 231.818 10.18 231.434C10.744 231.038 11.398 230.84 12.142 230.84C12.802 230.84 13.342 230.966 13.762 231.218C14.194 231.47 14.518 231.854 14.734 232.37C14.95 232.874 15.058 233.516 15.058 234.296V239.75H13.6V234.368C13.6 233.564 13.462 232.976 13.186 232.604C12.91 232.22 12.442 232.028 11.782 232.028C11.314 232.028 10.9 232.142 10.54 232.37C10.192 232.598 9.922 232.922 9.73 233.342C9.55 233.75 9.46 234.236 9.46 234.8V239.75H8.002V234.368C8.002 233.564 7.858 232.976 7.57 232.604C7.294 232.22 6.832 232.028 6.184 232.028C5.704 232.028 5.29 232.142 4.942 232.37C4.594 232.598 4.324 232.922 4.132 233.342C3.952 233.75 3.862 234.236 3.862 234.8V239.75H2.404ZM17.604 228.824V227.186H19.404V228.824H17.604ZM17.784 239.75V231.002H19.242V239.75H17.784ZM25.8376 243.152C25.0816 243.152 24.3676 243.05 23.6956 242.846C23.0356 242.654 22.4476 242.36 21.9316 241.964L22.4176 240.902C22.7776 241.154 23.1316 241.358 23.4796 241.514C23.8396 241.682 24.2056 241.802 24.5776 241.874C24.9616 241.946 25.3576 241.982 25.7656 241.982C26.6176 241.982 27.2596 241.754 27.6916 241.298C28.1356 240.842 28.3576 240.182 28.3576 239.318V237.284H28.5376C28.3576 237.98 27.9736 238.532 27.3856 238.94C26.8096 239.348 26.1316 239.552 25.3516 239.552C24.5476 239.552 23.8516 239.372 23.2636 239.012C22.6756 238.64 22.2196 238.124 21.8956 237.464C21.5836 236.804 21.4276 236.042 21.4276 235.178C21.4276 234.314 21.5836 233.558 21.8956 232.91C22.2196 232.25 22.6756 231.74 23.2636 231.38C23.8516 231.02 24.5476 230.84 25.3516 230.84C26.1436 230.84 26.8276 231.044 27.4036 231.452C27.9796 231.848 28.3516 232.388 28.5196 233.072H28.3576V231.002H29.7796V239.12C29.7796 240.008 29.6296 240.752 29.3296 241.352C29.0416 241.952 28.6036 242.402 28.0156 242.702C27.4276 243.002 26.7016 243.152 25.8376 243.152ZM25.6216 238.364C26.4616 238.364 27.1276 238.076 27.6196 237.5C28.1116 236.924 28.3576 236.15 28.3576 235.178C28.3576 234.206 28.1116 233.438 27.6196 232.874C27.1276 232.298 26.4616 232.01 25.6216 232.01C24.7936 232.01 24.1336 232.298 23.6416 232.874C23.1496 233.438 22.9036 234.206 22.9036 235.178C22.9036 236.15 23.1496 236.924 23.6416 237.5C24.1336 238.076 24.7936 238.364 25.6216 238.364ZM32.5145 239.75V231.002H33.9365V233.072H33.7565C33.9605 232.364 34.3145 231.83 34.8185 231.47C35.3225 231.098 35.9885 230.882 36.8165 230.822L37.3385 230.768L37.4465 232.028L36.5285 232.136C35.7125 232.208 35.0825 232.472 34.6385 232.928C34.2065 233.372 33.9905 233.984 33.9905 234.764V239.75H32.5145ZM41.6318 239.912C41.0318 239.912 40.4918 239.798 40.0118 239.57C39.5438 239.33 39.1718 239.006 38.8958 238.598C38.6198 238.19 38.4818 237.734 38.4818 237.23C38.4818 236.582 38.6438 236.072 38.9678 235.7C39.3038 235.328 39.8498 235.064 40.6058 234.908C41.3738 234.752 42.4178 234.674 43.7378 234.674H44.5478V235.628H43.7558C43.0238 235.628 42.4118 235.652 41.9198 235.7C41.4278 235.748 41.0378 235.832 40.7498 235.952C40.4618 236.072 40.2578 236.228 40.1378 236.42C40.0178 236.612 39.9578 236.852 39.9578 237.14C39.9578 237.632 40.1258 238.034 40.4618 238.346C40.8098 238.658 41.2778 238.814 41.8658 238.814C42.3458 238.814 42.7658 238.7 43.1258 238.472C43.4978 238.244 43.7858 237.932 43.9898 237.536C44.2058 237.14 44.3138 236.684 44.3138 236.168V234.116C44.3138 233.372 44.1638 232.838 43.8638 232.514C43.5638 232.178 43.0718 232.01 42.3878 232.01C41.8598 232.01 41.3498 232.088 40.8578 232.244C40.3658 232.388 39.8618 232.628 39.3458 232.964L38.8418 231.902C39.1538 231.686 39.5078 231.5 39.9038 231.344C40.2998 231.176 40.7138 231.05 41.1458 230.966C41.5778 230.882 41.9918 230.84 42.3878 230.84C43.1438 230.84 43.7678 230.966 44.2598 231.218C44.7518 231.458 45.1178 231.83 45.3578 232.334C45.5978 232.826 45.7178 233.462 45.7178 234.242V239.75H44.3498V237.716H44.5118C44.4158 238.172 44.2298 238.562 43.9538 238.886C43.6898 239.21 43.3598 239.462 42.9638 239.642C42.5678 239.822 42.1238 239.912 41.6318 239.912ZM51.9327 239.912C50.9007 239.912 50.1267 239.636 49.6107 239.084C49.0947 238.532 48.8367 237.746 48.8367 236.726V232.136H47.1267V231.002H48.8367V228.32H50.2947V231.002H53.0667V232.136H50.2947V236.582C50.2947 237.266 50.4387 237.788 50.7267 238.148C51.0147 238.496 51.4827 238.67 52.1307 238.67C52.3227 238.67 52.5147 238.646 52.7067 238.598C52.8987 238.55 53.0727 238.502 53.2287 238.454L53.4807 239.57C53.3247 239.654 53.0967 239.732 52.7967 239.804C52.4967 239.876 52.2087 239.912 51.9327 239.912ZM54.5357 228.824V227.186H56.3357V228.824H54.5357ZM54.7157 239.75V231.002H56.1737V239.75H54.7157ZM62.5353 239.912C61.6833 239.912 60.9453 239.726 60.3213 239.354C59.6973 238.982 59.2113 238.46 58.8633 237.788C58.5273 237.104 58.3593 236.3 58.3593 235.376C58.3593 234.452 58.5273 233.654 58.8633 232.982C59.2113 232.298 59.6973 231.77 60.3213 231.398C60.9453 231.026 61.6833 230.84 62.5353 230.84C63.3873 230.84 64.1253 231.026 64.7493 231.398C65.3733 231.77 65.8533 232.298 66.1893 232.982C66.5373 233.654 66.7113 234.452 66.7113 235.376C66.7113 236.3 66.5373 237.104 66.1893 237.788C65.8533 238.46 65.3733 238.982 64.7493 239.354C64.1253 239.726 63.3873 239.912 62.5353 239.912ZM62.5353 238.742C63.3633 238.742 64.0173 238.454 64.4973 237.878C64.9893 237.29 65.2353 236.45 65.2353 235.358C65.2353 234.278 64.9893 233.45 64.4973 232.874C64.0173 232.298 63.3633 232.01 62.5353 232.01C61.7193 232.01 61.0653 232.298 60.5733 232.874C60.0813 233.45 59.8353 234.278 59.8353 235.358C59.8353 236.45 60.0813 237.29 60.5733 237.878C61.0653 238.454 61.7193 238.742 62.5353 238.742ZM68.9012 239.75V231.002H70.3232V232.946H70.1252C70.3772 232.25 70.7852 231.728 71.3492 231.38C71.9252 231.02 72.5852 230.84 73.3292 230.84C74.0252 230.84 74.6012 230.966 75.0572 231.218C75.5252 231.458 75.8732 231.836 76.1012 232.352C76.3292 232.868 76.4432 233.516 76.4432 234.296V239.75H74.9852V234.386C74.9852 233.846 74.9132 233.402 74.7692 233.054C74.6372 232.706 74.4212 232.448 74.1212 232.28C73.8332 232.112 73.4552 232.028 72.9872 232.028C72.4592 232.028 71.9972 232.142 71.6012 232.37C71.2052 232.598 70.8992 232.916 70.6832 233.324C70.4672 233.732 70.3592 234.212 70.3592 234.764V239.75H68.9012ZM86.7067 239.912C86.2507 239.912 85.8067 239.864 85.3747 239.768C84.9547 239.684 84.5587 239.564 84.1867 239.408C83.8267 239.24 83.5147 239.042 83.2507 238.814L83.7187 237.788C84.0067 238.016 84.3187 238.208 84.6547 238.364C84.9907 238.508 85.3327 238.616 85.6807 238.688C86.0287 238.76 86.3827 238.796 86.7427 238.796C87.4267 238.796 87.9427 238.67 88.2907 238.418C88.6387 238.166 88.8127 237.824 88.8127 237.392C88.8127 237.056 88.6987 236.792 88.4707 236.6C88.2427 236.396 87.8827 236.24 87.3907 236.132L85.7527 235.772C84.9967 235.616 84.4327 235.346 84.0607 234.962C83.7007 234.578 83.5207 234.08 83.5207 233.468C83.5207 232.928 83.6587 232.466 83.9347 232.082C84.2227 231.686 84.6247 231.38 85.1407 231.164C85.6567 230.948 86.2567 230.84 86.9407 230.84C87.3487 230.84 87.7387 230.882 88.1107 230.966C88.4827 231.05 88.8307 231.176 89.1547 231.344C89.4907 231.5 89.7787 231.698 90.0187 231.938L89.5327 232.964C89.3047 232.748 89.0467 232.568 88.7587 232.424C88.4707 232.268 88.1707 232.154 87.8587 232.082C87.5587 231.998 87.2527 231.956 86.9407 231.956C86.2687 231.956 85.7587 232.088 85.4107 232.352C85.0627 232.616 84.8887 232.964 84.8887 233.396C84.8887 233.732 84.9967 234.008 85.2127 234.224C85.4287 234.44 85.7647 234.596 86.2207 234.692L87.8587 235.034C88.6387 235.202 89.2207 235.472 89.6047 235.844C90.0007 236.204 90.1987 236.696 90.1987 237.32C90.1987 237.848 90.0547 238.31 89.7667 238.706C89.4787 239.09 89.0707 239.39 88.5427 239.606C88.0267 239.81 87.4147 239.912 86.7067 239.912ZM96.0567 239.912C95.2047 239.912 94.4667 239.726 93.8427 239.354C93.2187 238.982 92.7327 238.46 92.3847 237.788C92.0487 237.104 91.8807 236.3 91.8807 235.376C91.8807 234.452 92.0487 233.654 92.3847 232.982C92.7327 232.298 93.2187 231.77 93.8427 231.398C94.4667 231.026 95.2047 230.84 96.0567 230.84C96.9087 230.84 97.6467 231.026 98.2707 231.398C98.8947 231.77 99.3747 232.298 99.7107 232.982C100.059 233.654 100.233 234.452 100.233 235.376C100.233 236.3 100.059 237.104 99.7107 237.788C99.3747 238.46 98.8947 238.982 98.2707 239.354C97.6467 239.726 96.9087 239.912 96.0567 239.912ZM96.0567 238.742C96.8847 238.742 97.5387 238.454 98.0187 237.878C98.5107 237.29 98.7567 236.45 98.7567 235.358C98.7567 234.278 98.5107 233.45 98.0187 232.874C97.5387 232.298 96.8847 232.01 96.0567 232.01C95.2407 232.01 94.5867 232.298 94.0947 232.874C93.6027 233.45 93.3567 234.278 93.3567 235.358C93.3567 236.45 93.6027 237.29 94.0947 237.878C94.5867 238.454 95.2407 238.742 96.0567 238.742ZM105.105 239.912C104.217 239.912 103.545 239.648 103.089 239.12C102.645 238.592 102.423 237.836 102.423 236.852V227.06H103.881V236.744C103.881 237.164 103.935 237.518 104.043 237.806C104.163 238.094 104.337 238.31 104.565 238.454C104.793 238.598 105.075 238.67 105.411 238.67C105.555 238.67 105.693 238.664 105.825 238.652C105.969 238.628 106.101 238.598 106.221 238.562L106.185 239.786C105.993 239.822 105.807 239.852 105.627 239.876C105.459 239.9 105.285 239.912 105.105 239.912ZM110.845 239.912C110.137 239.912 109.549 239.786 109.081 239.534C108.625 239.27 108.277 238.88 108.037 238.364C107.809 237.848 107.695 237.206 107.695 236.438V231.002H109.153V236.42C109.153 236.936 109.219 237.368 109.351 237.716C109.495 238.052 109.717 238.304 110.017 238.472C110.317 238.628 110.689 238.706 111.133 238.706C111.637 238.706 112.075 238.592 112.447 238.364C112.819 238.136 113.113 237.818 113.329 237.41C113.545 237.002 113.653 236.522 113.653 235.97V231.002H115.111V239.75H113.689V237.734H113.923C113.683 238.442 113.287 238.982 112.735 239.354C112.195 239.726 111.565 239.912 110.845 239.912ZM121.349 239.912C120.317 239.912 119.543 239.636 119.027 239.084C118.511 238.532 118.253 237.746 118.253 236.726V232.136H116.543V231.002H118.253V228.32H119.711V231.002H122.483V232.136H119.711V236.582C119.711 237.266 119.855 237.788 120.143 238.148C120.431 238.496 120.899 238.67 121.547 238.67C121.739 238.67 121.931 238.646 122.123 238.598C122.315 238.55 122.489 238.502 122.645 238.454L122.897 239.57C122.741 239.654 122.513 239.732 122.213 239.804C121.913 239.876 121.625 239.912 121.349 239.912ZM123.952 228.824V227.186H125.752V228.824H123.952ZM124.132 239.75V231.002H125.59V239.75H124.132ZM131.951 239.912C131.099 239.912 130.361 239.726 129.737 239.354C129.113 238.982 128.627 238.46 128.279 237.788C127.943 237.104 127.775 236.3 127.775 235.376C127.775 234.452 127.943 233.654 128.279 232.982C128.627 232.298 129.113 231.77 129.737 231.398C130.361 231.026 131.099 230.84 131.951 230.84C132.803 230.84 133.541 231.026 134.165 231.398C134.789 231.77 135.269 232.298 135.605 232.982C135.953 233.654 136.127 234.452 136.127 235.376C136.127 236.3 135.953 237.104 135.605 237.788C135.269 238.46 134.789 238.982 134.165 239.354C133.541 239.726 132.803 239.912 131.951 239.912ZM131.951 238.742C132.779 238.742 133.433 238.454 133.913 237.878C134.405 237.29 134.651 236.45 134.651 235.358C134.651 234.278 134.405 233.45 133.913 232.874C133.433 232.298 132.779 232.01 131.951 232.01C131.135 232.01 130.481 232.298 129.989 232.874C129.497 233.45 129.251 234.278 129.251 235.358C129.251 236.45 129.497 237.29 129.989 237.878C130.481 238.454 131.135 238.742 131.951 238.742ZM138.317 239.75V231.002H139.739V232.946H139.541C139.793 232.25 140.201 231.728 140.765 231.38C141.341 231.02 142.001 230.84 142.745 230.84C143.441 230.84 144.017 230.966 144.473 231.218C144.941 231.458 145.289 231.836 145.517 232.352C145.745 232.868 145.859 233.516 145.859 234.296V239.75H144.401V234.386C144.401 233.846 144.329 233.402 144.185 233.054C144.053 232.706 143.837 232.448 143.537 232.28C143.249 232.112 142.871 232.028 142.403 232.028C141.875 232.028 141.413 232.142 141.017 232.37C140.621 232.598 140.315 232.916 140.099 233.324C139.883 233.732 139.775 234.212 139.775 234.764V239.75H138.317ZM151.5 239.912C151.044 239.912 150.6 239.864 150.168 239.768C149.748 239.684 149.352 239.564 148.98 239.408C148.62 239.24 148.308 239.042 148.044 238.814L148.512 237.788C148.8 238.016 149.112 238.208 149.448 238.364C149.784 238.508 150.126 238.616 150.474 238.688C150.822 238.76 151.176 238.796 151.536 238.796C152.22 238.796 152.736 238.67 153.084 238.418C153.432 238.166 153.606 237.824 153.606 237.392C153.606 237.056 153.492 236.792 153.264 236.6C153.036 236.396 152.676 236.24 152.184 236.132L150.546 235.772C149.79 235.616 149.226 235.346 148.854 234.962C148.494 234.578 148.314 234.08 148.314 233.468C148.314 232.928 148.452 232.466 148.728 232.082C149.016 231.686 149.418 231.38 149.934 231.164C150.45 230.948 151.05 230.84 151.734 230.84C152.142 230.84 152.532 230.882 152.904 230.966C153.276 231.05 153.624 231.176 153.948 231.344C154.284 231.5 154.572 231.698 154.812 231.938L154.326 232.964C154.098 232.748 153.84 232.568 153.552 232.424C153.264 232.268 152.964 232.154 152.652 232.082C152.352 231.998 152.046 231.956 151.734 231.956C151.062 231.956 150.552 232.088 150.204 232.352C149.856 232.616 149.682 232.964 149.682 233.396C149.682 233.732 149.79 234.008 150.006 234.224C150.222 234.44 150.558 234.596 151.014 234.692L152.652 235.034C153.432 235.202 154.014 235.472 154.398 235.844C154.794 236.204 154.992 236.696 154.992 237.32C154.992 237.848 154.848 238.31 154.56 238.706C154.272 239.09 153.864 239.39 153.336 239.606C152.82 239.81 152.208 239.912 151.5 239.912ZM157.648 241.802L156.964 241.28C157.18 241.052 157.342 240.836 157.45 240.632C157.57 240.44 157.648 240.242 157.684 240.038C157.732 239.846 157.756 239.648 157.756 239.444L158.08 239.75H156.892V237.914H158.728V239.21C158.728 239.534 158.692 239.84 158.62 240.128C158.56 240.428 158.452 240.716 158.296 240.992C158.14 241.268 157.924 241.538 157.648 241.802ZM169.355 239.912C168.323 239.912 167.549 239.636 167.033 239.084C166.517 238.532 166.259 237.746 166.259 236.726V232.136H164.549V231.002H166.259V228.32H167.717V231.002H170.489V232.136H167.717V236.582C167.717 237.266 167.861 237.788 168.149 238.148C168.437 238.496 168.905 238.67 169.553 238.67C169.745 238.67 169.937 238.646 170.129 238.598C170.321 238.55 170.495 238.502 170.651 238.454L170.903 239.57C170.747 239.654 170.519 239.732 170.219 239.804C169.919 239.876 169.631 239.912 169.355 239.912ZM174.892 239.912C174.292 239.912 173.752 239.798 173.272 239.57C172.804 239.33 172.432 239.006 172.156 238.598C171.88 238.19 171.742 237.734 171.742 237.23C171.742 236.582 171.904 236.072 172.228 235.7C172.564 235.328 173.11 235.064 173.866 234.908C174.634 234.752 175.678 234.674 176.998 234.674H177.808V235.628H177.016C176.284 235.628 175.672 235.652 175.18 235.7C174.688 235.748 174.298 235.832 174.01 235.952C173.722 236.072 173.518 236.228 173.398 236.42C173.278 236.612 173.218 236.852 173.218 237.14C173.218 237.632 173.386 238.034 173.722 238.346C174.07 238.658 174.538 238.814 175.126 238.814C175.606 238.814 176.026 238.7 176.386 238.472C176.758 238.244 177.046 237.932 177.25 237.536C177.466 237.14 177.574 236.684 177.574 236.168V234.116C177.574 233.372 177.424 232.838 177.124 232.514C176.824 232.178 176.332 232.01 175.648 232.01C175.12 232.01 174.61 232.088 174.118 232.244C173.626 232.388 173.122 232.628 172.606 232.964L172.102 231.902C172.414 231.686 172.768 231.5 173.164 231.344C173.56 231.176 173.974 231.05 174.406 230.966C174.838 230.882 175.252 230.84 175.648 230.84C176.404 230.84 177.028 230.966 177.52 231.218C178.012 231.458 178.378 231.83 178.618 232.334C178.858 232.826 178.978 233.462 178.978 234.242V239.75H177.61V237.716H177.772C177.676 238.172 177.49 238.562 177.214 238.886C176.95 239.21 176.62 239.462 176.224 239.642C175.828 239.822 175.384 239.912 174.892 239.912ZM181.502 228.824V227.186H183.302V228.824H181.502ZM181.682 239.75V231.002H183.14V239.75H181.682ZM188.548 239.912C187.66 239.912 186.988 239.648 186.532 239.12C186.088 238.592 185.866 237.836 185.866 236.852V227.06H187.324V236.744C187.324 237.164 187.378 237.518 187.486 237.806C187.606 238.094 187.78 238.31 188.008 238.454C188.236 238.598 188.518 238.67 188.854 238.67C188.998 238.67 189.136 238.664 189.268 238.652C189.412 238.628 189.544 238.598 189.664 238.562L189.628 239.786C189.436 239.822 189.25 239.852 189.07 239.876C188.902 239.9 188.728 239.912 188.548 239.912ZM194.74 239.912C193.888 239.912 193.15 239.726 192.526 239.354C191.902 238.982 191.416 238.46 191.068 237.788C190.732 237.104 190.564 236.3 190.564 235.376C190.564 234.452 190.732 233.654 191.068 232.982C191.416 232.298 191.902 231.77 192.526 231.398C193.15 231.026 193.888 230.84 194.74 230.84C195.592 230.84 196.33 231.026 196.954 231.398C197.578 231.77 198.058 232.298 198.394 232.982C198.742 233.654 198.916 234.452 198.916 235.376C198.916 236.3 198.742 237.104 198.394 237.788C198.058 238.46 197.578 238.982 196.954 239.354C196.33 239.726 195.592 239.912 194.74 239.912ZM194.74 238.742C195.568 238.742 196.222 238.454 196.702 237.878C197.194 237.29 197.44 236.45 197.44 235.358C197.44 234.278 197.194 233.45 196.702 232.874C196.222 232.298 195.568 232.01 194.74 232.01C193.924 232.01 193.27 232.298 192.778 232.874C192.286 233.45 192.04 234.278 192.04 235.358C192.04 236.45 192.286 237.29 192.778 237.878C193.27 238.454 193.924 238.742 194.74 238.742ZM201.106 239.75V231.002H202.528V233.072H202.348C202.552 232.364 202.906 231.83 203.41 231.47C203.914 231.098 204.58 230.882 205.408 230.822L205.93 230.768L206.038 232.028L205.12 232.136C204.304 232.208 203.674 232.472 203.23 232.928C202.798 233.372 202.582 233.984 202.582 234.764V239.75H201.106ZM211.394 239.912C210.47 239.912 209.672 239.732 209 239.372C208.34 239 207.824 238.478 207.452 237.806C207.092 237.134 206.912 236.33 206.912 235.394C206.912 234.482 207.092 233.69 207.452 233.018C207.812 232.334 208.304 231.8 208.928 231.416C209.564 231.032 210.296 230.84 211.124 230.84C211.916 230.84 212.594 231.014 213.158 231.362C213.722 231.71 214.154 232.202 214.454 232.838C214.766 233.474 214.922 234.236 214.922 235.124V235.682H208.028V234.728H213.95L213.662 234.962C213.662 234.002 213.446 233.258 213.014 232.73C212.594 232.19 211.976 231.92 211.16 231.92C210.548 231.92 210.026 232.064 209.594 232.352C209.174 232.628 208.856 233.018 208.64 233.522C208.424 234.014 208.316 234.59 208.316 235.25V235.358C208.316 236.09 208.43 236.708 208.658 237.212C208.898 237.716 209.252 238.1 209.72 238.364C210.188 238.616 210.746 238.742 211.394 238.742C211.91 238.742 212.408 238.664 212.888 238.508C213.38 238.34 213.842 238.07 214.274 237.698L214.778 238.724C214.382 239.084 213.878 239.372 213.266 239.588C212.654 239.804 212.03 239.912 211.394 239.912ZM220.362 239.912C219.582 239.912 218.898 239.726 218.31 239.354C217.734 238.982 217.284 238.46 216.96 237.788C216.648 237.104 216.492 236.3 216.492 235.376C216.492 234.44 216.648 233.636 216.96 232.964C217.284 232.28 217.734 231.758 218.31 231.398C218.898 231.026 219.582 230.84 220.362 230.84C221.154 230.84 221.832 231.038 222.396 231.434C222.96 231.83 223.338 232.364 223.53 233.036H223.332V227.06H224.79V239.75H223.368V237.662H223.548C223.356 238.346 222.972 238.892 222.396 239.3C221.832 239.708 221.154 239.912 220.362 239.912ZM220.668 238.742C221.496 238.742 222.15 238.454 222.63 237.878C223.122 237.29 223.368 236.456 223.368 235.376C223.368 234.284 223.122 233.45 222.63 232.874C222.15 232.298 221.496 232.01 220.668 232.01C219.852 232.01 219.198 232.298 218.706 232.874C218.214 233.45 217.968 234.284 217.968 235.376C217.968 236.456 218.214 237.29 218.706 237.878C219.198 238.454 219.852 238.742 220.668 238.742ZM5.878 266.912C4.846 266.912 4.072 266.636 3.556 266.084C3.04 265.532 2.782 264.746 2.782 263.726V259.136H1.072V258.002H2.782V255.32H4.24V258.002H7.012V259.136H4.24V263.582C4.24 264.266 4.384 264.788 4.672 265.148C4.96 265.496 5.428 265.67 6.076 265.67C6.268 265.67 6.46 265.646 6.652 265.598C6.844 265.55 7.018 265.502 7.174 265.454L7.426 266.57C7.27 266.654 7.042 266.732 6.742 266.804C6.442 266.876 6.154 266.912 5.878 266.912ZM12.2091 266.912C11.3571 266.912 10.6191 266.726 9.99508 266.354C9.37108 265.982 8.88508 265.46 8.53708 264.788C8.20108 264.104 8.03308 263.3 8.03308 262.376C8.03308 261.452 8.20108 260.654 8.53708 259.982C8.88508 259.298 9.37108 258.77 9.99508 258.398C10.6191 258.026 11.3571 257.84 12.2091 257.84C13.0611 257.84 13.7991 258.026 14.4231 258.398C15.0471 258.77 15.5271 259.298 15.8631 259.982C16.2111 260.654 16.3851 261.452 16.3851 262.376C16.3851 263.3 16.2111 264.104 15.8631 264.788C15.5271 265.46 15.0471 265.982 14.4231 266.354C13.7991 266.726 13.0611 266.912 12.2091 266.912ZM12.2091 265.742C13.0371 265.742 13.6911 265.454 14.1711 264.878C14.6631 264.29 14.9091 263.45 14.9091 262.358C14.9091 261.278 14.6631 260.45 14.1711 259.874C13.6911 259.298 13.0371 259.01 12.2091 259.01C11.3931 259.01 10.7391 259.298 10.2471 259.874C9.75508 260.45 9.50908 261.278 9.50908 262.358C9.50908 263.45 9.75508 264.29 10.2471 264.878C10.7391 265.454 11.3931 265.742 12.2091 265.742ZM23.2341 266.75V258.002H24.6561V259.946H24.4581C24.6021 259.502 24.8121 259.124 25.0881 258.812C25.3761 258.488 25.7121 258.248 26.0961 258.092C26.4921 257.924 26.9241 257.84 27.3921 257.84C28.1361 257.84 28.7361 258.02 29.1921 258.38C29.6601 258.728 29.9721 259.274 30.1281 260.018H29.8581C30.0741 259.346 30.4581 258.818 31.0101 258.434C31.5741 258.038 32.2281 257.84 32.9721 257.84C33.6321 257.84 34.1721 257.966 34.5921 258.218C35.0241 258.47 35.3481 258.854 35.5641 259.37C35.7801 259.874 35.8881 260.516 35.8881 261.296V266.75H34.4301V261.368C34.4301 260.564 34.2921 259.976 34.0161 259.604C33.7401 259.22 33.2721 259.028 32.6121 259.028C32.1441 259.028 31.7301 259.142 31.3701 259.37C31.0221 259.598 30.7521 259.922 30.5601 260.342C30.3801 260.75 30.2901 261.236 30.2901 261.8V266.75H28.8321V261.368C28.8321 260.564 28.6881 259.976 28.4001 259.604C28.1241 259.22 27.6621 259.028 27.0141 259.028C26.5341 259.028 26.1201 259.142 25.7721 259.37C25.4241 259.598 25.1541 259.922 24.9621 260.342C24.7821 260.75 24.6921 261.236 24.6921 261.8V266.75H23.2341ZM42.5561 266.912C41.6321 266.912 40.8341 266.732 40.1621 266.372C39.5021 266 38.9861 265.478 38.6141 264.806C38.2541 264.134 38.0741 263.33 38.0741 262.394C38.0741 261.482 38.2541 260.69 38.6141 260.018C38.9741 259.334 39.4661 258.8 40.0901 258.416C40.7261 258.032 41.4581 257.84 42.2861 257.84C43.0781 257.84 43.7561 258.014 44.3201 258.362C44.8841 258.71 45.3161 259.202 45.6161 259.838C45.9281 260.474 46.0841 261.236 46.0841 262.124V262.682H39.1901V261.728H45.1121L44.8241 261.962C44.8241 261.002 44.6081 260.258 44.1761 259.73C43.7561 259.19 43.1381 258.92 42.3221 258.92C41.7101 258.92 41.1881 259.064 40.7561 259.352C40.3361 259.628 40.0181 260.018 39.8021 260.522C39.5861 261.014 39.4781 261.59 39.4781 262.25V262.358C39.4781 263.09 39.5921 263.708 39.8201 264.212C40.0601 264.716 40.4141 265.1 40.8821 265.364C41.3501 265.616 41.9081 265.742 42.5561 265.742C43.0721 265.742 43.5701 265.664 44.0501 265.508C44.5421 265.34 45.0041 265.07 45.4361 264.698L45.9401 265.724C45.5441 266.084 45.0401 266.372 44.4281 266.588C43.8161 266.804 43.1921 266.912 42.5561 266.912ZM52.1362 266.912C51.2122 266.912 50.4142 266.732 49.7422 266.372C49.0822 266 48.5662 265.478 48.1942 264.806C47.8342 264.134 47.6542 263.33 47.6542 262.394C47.6542 261.482 47.8342 260.69 48.1942 260.018C48.5542 259.334 49.0462 258.8 49.6702 258.416C50.3062 258.032 51.0382 257.84 51.8662 257.84C52.6582 257.84 53.3362 258.014 53.9002 258.362C54.4642 258.71 54.8962 259.202 55.1962 259.838C55.5082 260.474 55.6642 261.236 55.6642 262.124V262.682H48.7702V261.728H54.6922L54.4042 261.962C54.4042 261.002 54.1882 260.258 53.7562 259.73C53.3362 259.19 52.7182 258.92 51.9022 258.92C51.2902 258.92 50.7682 259.064 50.3362 259.352C49.9162 259.628 49.5982 260.018 49.3822 260.522C49.1662 261.014 49.0582 261.59 49.0582 262.25V262.358C49.0582 263.09 49.1722 263.708 49.4002 264.212C49.6402 264.716 49.9942 265.1 50.4622 265.364C50.9302 265.616 51.4882 265.742 52.1362 265.742C52.6522 265.742 53.1502 265.664 53.6302 265.508C54.1222 265.34 54.5842 265.07 55.0162 264.698L55.5202 265.724C55.1242 266.084 54.6202 266.372 54.0082 266.588C53.3962 266.804 52.7722 266.912 52.1362 266.912ZM61.2843 266.912C60.2523 266.912 59.4783 266.636 58.9623 266.084C58.4463 265.532 58.1883 264.746 58.1883 263.726V259.136H56.4783V258.002H58.1883V255.32H59.6463V258.002H62.4183V259.136H59.6463V263.582C59.6463 264.266 59.7903 264.788 60.0783 265.148C60.3663 265.496 60.8343 265.67 61.4823 265.67C61.6743 265.67 61.8663 265.646 62.0583 265.598C62.2503 265.55 62.4243 265.502 62.5803 265.454L62.8323 266.57C62.6763 266.654 62.4483 266.732 62.1483 266.804C61.8483 266.876 61.5603 266.912 61.2843 266.912ZM69.6983 269.99L71.3363 266.3V266.93L67.5023 258.002H69.0863L72.2183 265.67H71.7323L74.9003 258.002H76.4303L71.2283 269.99H69.6983ZM81.4493 266.912C80.5973 266.912 79.8593 266.726 79.2353 266.354C78.6113 265.982 78.1253 265.46 77.7773 264.788C77.4413 264.104 77.2733 263.3 77.2733 262.376C77.2733 261.452 77.4413 260.654 77.7773 259.982C78.1253 259.298 78.6113 258.77 79.2353 258.398C79.8593 258.026 80.5973 257.84 81.4493 257.84C82.3013 257.84 83.0393 258.026 83.6633 258.398C84.2873 258.77 84.7673 259.298 85.1033 259.982C85.4513 260.654 85.6253 261.452 85.6253 262.376C85.6253 263.3 85.4513 264.104 85.1033 264.788C84.7673 265.46 84.2873 265.982 83.6633 266.354C83.0393 266.726 82.3013 266.912 81.4493 266.912ZM81.4493 265.742C82.2773 265.742 82.9313 265.454 83.4113 264.878C83.9033 264.29 84.1493 263.45 84.1493 262.358C84.1493 261.278 83.9033 260.45 83.4113 259.874C82.9313 259.298 82.2773 259.01 81.4493 259.01C80.6333 259.01 79.9793 259.298 79.4873 259.874C78.9953 260.45 78.7493 261.278 78.7493 262.358C78.7493 263.45 78.9953 264.29 79.4873 264.878C79.9793 265.454 80.6333 265.742 81.4493 265.742ZM90.9113 266.912C90.2033 266.912 89.6153 266.786 89.1473 266.534C88.6913 266.27 88.3433 265.88 88.1033 265.364C87.8753 264.848 87.7613 264.206 87.7613 263.438V258.002H89.2193V263.42C89.2193 263.936 89.2853 264.368 89.4173 264.716C89.5613 265.052 89.7833 265.304 90.0833 265.472C90.3833 265.628 90.7553 265.706 91.1993 265.706C91.7033 265.706 92.1413 265.592 92.5133 265.364C92.8853 265.136 93.1793 264.818 93.3953 264.41C93.6113 264.002 93.7193 263.522 93.7193 262.97V258.002H95.1773V266.75H93.7553V264.734H93.9893C93.7493 265.442 93.3533 265.982 92.8013 266.354C92.2613 266.726 91.6313 266.912 90.9113 266.912ZM97.9051 266.75V258.002H99.3271V260.072H99.1471C99.3511 259.364 99.7051 258.83 100.209 258.47C100.713 258.098 101.379 257.882 102.207 257.822L102.729 257.768L102.837 259.028L101.919 259.136C101.103 259.208 100.473 259.472 100.029 259.928C99.5971 260.372 99.3811 260.984 99.3811 261.764V266.75H97.9051ZM113.407 266.912C112.615 266.912 111.931 266.708 111.355 266.3C110.791 265.892 110.413 265.346 110.221 264.662H110.401V266.75H108.979V254.06H110.437V260.036H110.221C110.425 259.364 110.809 258.83 111.373 258.434C111.937 258.038 112.615 257.84 113.407 257.84C114.199 257.84 114.883 258.026 115.459 258.398C116.035 258.758 116.479 259.28 116.791 259.964C117.115 260.636 117.277 261.44 117.277 262.376C117.277 263.3 117.115 264.104 116.791 264.788C116.479 265.46 116.029 265.982 115.441 266.354C114.865 266.726 114.187 266.912 113.407 266.912ZM113.101 265.742C113.929 265.742 114.583 265.454 115.063 264.878C115.555 264.29 115.801 263.456 115.801 262.376C115.801 261.284 115.555 260.45 115.063 259.874C114.583 259.298 113.929 259.01 113.101 259.01C112.285 259.01 111.631 259.298 111.139 259.874C110.647 260.45 110.401 261.284 110.401 262.376C110.401 263.456 110.647 264.29 111.139 264.878C111.631 265.454 112.285 265.742 113.101 265.742ZM122.569 266.912C121.861 266.912 121.273 266.786 120.805 266.534C120.349 266.27 120.001 265.88 119.761 265.364C119.533 264.848 119.419 264.206 119.419 263.438V258.002H120.877V263.42C120.877 263.936 120.943 264.368 121.075 264.716C121.219 265.052 121.441 265.304 121.741 265.472C122.041 265.628 122.413 265.706 122.857 265.706C123.361 265.706 123.799 265.592 124.171 265.364C124.543 265.136 124.837 264.818 125.053 264.41C125.269 264.002 125.377 263.522 125.377 262.97V258.002H126.835V266.75H125.413V264.734H125.647C125.407 265.442 125.011 265.982 124.459 266.354C123.919 266.726 123.289 266.912 122.569 266.912ZM132.515 266.912C132.059 266.912 131.615 266.864 131.183 266.768C130.763 266.684 130.367 266.564 129.995 266.408C129.635 266.24 129.323 266.042 129.059 265.814L129.527 264.788C129.815 265.016 130.127 265.208 130.463 265.364C130.799 265.508 131.141 265.616 131.489 265.688C131.837 265.76 132.191 265.796 132.551 265.796C133.235 265.796 133.751 265.67 134.099 265.418C134.447 265.166 134.621 264.824 134.621 264.392C134.621 264.056 134.507 263.792 134.279 263.6C134.051 263.396 133.691 263.24 133.199 263.132L131.561 262.772C130.805 262.616 130.241 262.346 129.869 261.962C129.509 261.578 129.329 261.08 129.329 260.468C129.329 259.928 129.467 259.466 129.743 259.082C130.031 258.686 130.433 258.38 130.949 258.164C131.465 257.948 132.065 257.84 132.749 257.84C133.157 257.84 133.547 257.882 133.919 257.966C134.291 258.05 134.639 258.176 134.963 258.344C135.299 258.5 135.587 258.698 135.827 258.938L135.341 259.964C135.113 259.748 134.855 259.568 134.567 259.424C134.279 259.268 133.979 259.154 133.667 259.082C133.367 258.998 133.061 258.956 132.749 258.956C132.077 258.956 131.567 259.088 131.219 259.352C130.871 259.616 130.697 259.964 130.697 260.396C130.697 260.732 130.805 261.008 131.021 261.224C131.237 261.44 131.573 261.596 132.029 261.692L133.667 262.034C134.447 262.202 135.029 262.472 135.413 262.844C135.809 263.204 136.007 263.696 136.007 264.32C136.007 264.848 135.863 265.31 135.575 265.706C135.287 266.09 134.879 266.39 134.351 266.606C133.835 266.81 133.223 266.912 132.515 266.912ZM138.049 255.824V254.186H139.849V255.824H138.049ZM138.229 266.75V258.002H139.687V266.75H138.229ZM142.413 266.75V258.002H143.835V259.946H143.637C143.889 259.25 144.297 258.728 144.861 258.38C145.437 258.02 146.097 257.84 146.841 257.84C147.537 257.84 148.113 257.966 148.569 258.218C149.037 258.458 149.385 258.836 149.613 259.352C149.841 259.868 149.955 260.516 149.955 261.296V266.75H148.497V261.386C148.497 260.846 148.425 260.402 148.281 260.054C148.149 259.706 147.933 259.448 147.633 259.28C147.345 259.112 146.967 259.028 146.499 259.028C145.971 259.028 145.509 259.142 145.113 259.37C144.717 259.598 144.411 259.916 144.195 260.324C143.979 260.732 143.871 261.212 143.871 261.764V266.75H142.413ZM156.585 266.912C155.661 266.912 154.863 266.732 154.191 266.372C153.531 266 153.015 265.478 152.643 264.806C152.283 264.134 152.103 263.33 152.103 262.394C152.103 261.482 152.283 260.69 152.643 260.018C153.003 259.334 153.495 258.8 154.119 258.416C154.755 258.032 155.487 257.84 156.315 257.84C157.107 257.84 157.785 258.014 158.349 258.362C158.913 258.71 159.345 259.202 159.645 259.838C159.957 260.474 160.113 261.236 160.113 262.124V262.682H153.219V261.728H159.141L158.853 261.962C158.853 261.002 158.637 260.258 158.205 259.73C157.785 259.19 157.167 258.92 156.351 258.92C155.739 258.92 155.217 259.064 154.785 259.352C154.365 259.628 154.047 260.018 153.831 260.522C153.615 261.014 153.507 261.59 153.507 262.25V262.358C153.507 263.09 153.621 263.708 153.849 264.212C154.089 264.716 154.443 265.1 154.911 265.364C155.379 265.616 155.937 265.742 156.585 265.742C157.101 265.742 157.599 265.664 158.079 265.508C158.571 265.34 159.033 265.07 159.465 264.698L159.969 265.724C159.573 266.084 159.069 266.372 158.457 266.588C157.845 266.804 157.221 266.912 156.585 266.912ZM165.175 266.912C164.719 266.912 164.275 266.864 163.843 266.768C163.423 266.684 163.027 266.564 162.655 266.408C162.295 266.24 161.983 266.042 161.719 265.814L162.187 264.788C162.475 265.016 162.787 265.208 163.123 265.364C163.459 265.508 163.801 265.616 164.149 265.688C164.497 265.76 164.851 265.796 165.211 265.796C165.895 265.796 166.411 265.67 166.759 265.418C167.107 265.166 167.281 264.824 167.281 264.392C167.281 264.056 167.167 263.792 166.939 263.6C166.711 263.396 166.351 263.24 165.859 263.132L164.221 262.772C163.465 262.616 162.901 262.346 162.529 261.962C162.169 261.578 161.989 261.08 161.989 260.468C161.989 259.928 162.127 259.466 162.403 259.082C162.691 258.686 163.093 258.38 163.609 258.164C164.125 257.948 164.725 257.84 165.409 257.84C165.817 257.84 166.207 257.882 166.579 257.966C166.951 258.05 167.299 258.176 167.623 258.344C167.959 258.5 168.247 258.698 168.487 258.938L168.001 259.964C167.773 259.748 167.515 259.568 167.227 259.424C166.939 259.268 166.639 259.154 166.327 259.082C166.027 258.998 165.721 258.956 165.409 258.956C164.737 258.956 164.227 259.088 163.879 259.352C163.531 259.616 163.357 259.964 163.357 260.396C163.357 260.732 163.465 261.008 163.681 261.224C163.897 261.44 164.233 261.596 164.689 261.692L166.327 262.034C167.107 262.202 167.689 262.472 168.073 262.844C168.469 263.204 168.667 263.696 168.667 264.32C168.667 264.848 168.523 265.31 168.235 265.706C167.947 266.09 167.539 266.39 167.011 266.606C166.495 266.81 165.883 266.912 165.175 266.912ZM173.841 266.912C173.385 266.912 172.941 266.864 172.509 266.768C172.089 266.684 171.693 266.564 171.321 266.408C170.961 266.24 170.649 266.042 170.385 265.814L170.853 264.788C171.141 265.016 171.453 265.208 171.789 265.364C172.125 265.508 172.467 265.616 172.815 265.688C173.163 265.76 173.517 265.796 173.877 265.796C174.561 265.796 175.077 265.67 175.425 265.418C175.773 265.166 175.947 264.824 175.947 264.392C175.947 264.056 175.833 263.792 175.605 263.6C175.377 263.396 175.017 263.24 174.525 263.132L172.887 262.772C172.131 262.616 171.567 262.346 171.195 261.962C170.835 261.578 170.655 261.08 170.655 260.468C170.655 259.928 170.793 259.466 171.069 259.082C171.357 258.686 171.759 258.38 172.275 258.164C172.791 257.948 173.391 257.84 174.075 257.84C174.483 257.84 174.873 257.882 175.245 257.966C175.617 258.05 175.965 258.176 176.289 258.344C176.625 258.5 176.913 258.698 177.153 258.938L176.667 259.964C176.439 259.748 176.181 259.568 175.893 259.424C175.605 259.268 175.305 259.154 174.993 259.082C174.693 258.998 174.387 258.956 174.075 258.956C173.403 258.956 172.893 259.088 172.545 259.352C172.197 259.616 172.023 259.964 172.023 260.396C172.023 260.732 172.131 261.008 172.347 261.224C172.563 261.44 172.899 261.596 173.355 261.692L174.993 262.034C175.773 262.202 176.355 262.472 176.739 262.844C177.135 263.204 177.333 263.696 177.333 264.32C177.333 264.848 177.189 265.31 176.901 265.706C176.613 266.09 176.205 266.39 175.677 266.606C175.161 266.81 174.549 266.912 173.841 266.912ZM2.368 293.75V285.002H3.79V286.946H3.592C3.844 286.25 4.252 285.728 4.816 285.38C5.392 285.02 6.052 284.84 6.796 284.84C7.492 284.84 8.068 284.966 8.524 285.218C8.992 285.458 9.34 285.836 9.568 286.352C9.796 286.868 9.91 287.516 9.91 288.296V293.75H8.452V288.386C8.452 287.846 8.38 287.402 8.236 287.054C8.104 286.706 7.888 286.448 7.588 286.28C7.3 286.112 6.922 286.028 6.454 286.028C5.926 286.028 5.464 286.142 5.068 286.37C4.672 286.598 4.366 286.916 4.15 287.324C3.934 287.732 3.826 288.212 3.826 288.764V293.75H2.368ZM16.5405 293.912C15.6165 293.912 14.8185 293.732 14.1465 293.372C13.4865 293 12.9705 292.478 12.5985 291.806C12.2385 291.134 12.0585 290.33 12.0585 289.394C12.0585 288.482 12.2385 287.69 12.5985 287.018C12.9585 286.334 13.4505 285.8 14.0745 285.416C14.7105 285.032 15.4425 284.84 16.2705 284.84C17.0625 284.84 17.7405 285.014 18.3045 285.362C18.8685 285.71 19.3005 286.202 19.6005 286.838C19.9125 287.474 20.0685 288.236 20.0685 289.124V289.682H13.1745V288.728H19.0965L18.8085 288.962C18.8085 288.002 18.5925 287.258 18.1605 286.73C17.7405 286.19 17.1225 285.92 16.3065 285.92C15.6945 285.92 15.1725 286.064 14.7405 286.352C14.3205 286.628 14.0025 287.018 13.7865 287.522C13.5705 288.014 13.4625 288.59 13.4625 289.25V289.358C13.4625 290.09 13.5765 290.708 13.8045 291.212C14.0445 291.716 14.3985 292.1 14.8665 292.364C15.3345 292.616 15.8925 292.742 16.5405 292.742C17.0565 292.742 17.5545 292.664 18.0345 292.508C18.5265 292.34 18.9885 292.07 19.4205 291.698L19.9245 292.724C19.5285 293.084 19.0245 293.372 18.4125 293.588C17.8005 293.804 17.1765 293.912 16.5405 293.912ZM26.1205 293.912C25.1965 293.912 24.3985 293.732 23.7265 293.372C23.0665 293 22.5505 292.478 22.1785 291.806C21.8185 291.134 21.6385 290.33 21.6385 289.394C21.6385 288.482 21.8185 287.69 22.1785 287.018C22.5385 286.334 23.0305 285.8 23.6545 285.416C24.2905 285.032 25.0225 284.84 25.8505 284.84C26.6425 284.84 27.3205 285.014 27.8845 285.362C28.4485 285.71 28.8805 286.202 29.1805 286.838C29.4925 287.474 29.6485 288.236 29.6485 289.124V289.682H22.7545V288.728H28.6765L28.3885 288.962C28.3885 288.002 28.1725 287.258 27.7405 286.73C27.3205 286.19 26.7025 285.92 25.8865 285.92C25.2745 285.92 24.7525 286.064 24.3205 286.352C23.9005 286.628 23.5825 287.018 23.3665 287.522C23.1505 288.014 23.0425 288.59 23.0425 289.25V289.358C23.0425 290.09 23.1565 290.708 23.3845 291.212C23.6245 291.716 23.9785 292.1 24.4465 292.364C24.9145 292.616 25.4725 292.742 26.1205 292.742C26.6365 292.742 27.1345 292.664 27.6145 292.508C28.1065 292.34 28.5685 292.07 29.0005 291.698L29.5045 292.724C29.1085 293.084 28.6045 293.372 27.9925 293.588C27.3805 293.804 26.7565 293.912 26.1205 293.912ZM35.0886 293.912C34.3086 293.912 33.6246 293.726 33.0366 293.354C32.4606 292.982 32.0106 292.46 31.6866 291.788C31.3746 291.104 31.2186 290.3 31.2186 289.376C31.2186 288.44 31.3746 287.636 31.6866 286.964C32.0106 286.28 32.4606 285.758 33.0366 285.398C33.6246 285.026 34.3086 284.84 35.0886 284.84C35.8806 284.84 36.5586 285.038 37.1226 285.434C37.6866 285.83 38.0646 286.364 38.2566 287.036H38.0586V281.06H39.5166V293.75H38.0946V291.662H38.2746C38.0826 292.346 37.6986 292.892 37.1226 293.3C36.5586 293.708 35.8806 293.912 35.0886 293.912ZM35.3946 292.742C36.2226 292.742 36.8766 292.454 37.3566 291.878C37.8486 291.29 38.0946 290.456 38.0946 289.376C38.0946 288.284 37.8486 287.45 37.3566 286.874C36.8766 286.298 36.2226 286.01 35.3946 286.01C34.5786 286.01 33.9246 286.298 33.4326 286.874C32.9406 287.45 32.6946 288.284 32.6946 289.376C32.6946 290.456 32.9406 291.29 33.4326 291.878C33.9246 292.454 34.5786 292.742 35.3946 292.742ZM45.2048 293.912C44.7488 293.912 44.3048 293.864 43.8728 293.768C43.4528 293.684 43.0568 293.564 42.6848 293.408C42.3248 293.24 42.0128 293.042 41.7488 292.814L42.2168 291.788C42.5048 292.016 42.8168 292.208 43.1528 292.364C43.4888 292.508 43.8308 292.616 44.1788 292.688C44.5268 292.76 44.8808 292.796 45.2408 292.796C45.9248 292.796 46.4408 292.67 46.7888 292.418C47.1368 292.166 47.3108 291.824 47.3108 291.392C47.3108 291.056 47.1968 290.792 46.9688 290.6C46.7408 290.396 46.3808 290.24 45.8888 290.132L44.2508 289.772C43.4948 289.616 42.9308 289.346 42.5588 288.962C42.1988 288.578 42.0188 288.08 42.0188 287.468C42.0188 286.928 42.1568 286.466 42.4328 286.082C42.7208 285.686 43.1228 285.38 43.6388 285.164C44.1548 284.948 44.7548 284.84 45.4388 284.84C45.8468 284.84 46.2368 284.882 46.6088 284.966C46.9808 285.05 47.3288 285.176 47.6528 285.344C47.9888 285.5 48.2768 285.698 48.5168 285.938L48.0308 286.964C47.8028 286.748 47.5448 286.568 47.2568 286.424C46.9688 286.268 46.6688 286.154 46.3568 286.082C46.0568 285.998 45.7508 285.956 45.4388 285.956C44.7668 285.956 44.2568 286.088 43.9088 286.352C43.5608 286.616 43.3868 286.964 43.3868 287.396C43.3868 287.732 43.4948 288.008 43.7108 288.224C43.9268 288.44 44.2628 288.596 44.7188 288.692L46.3568 289.034C47.1368 289.202 47.7188 289.472 48.1028 289.844C48.4988 290.204 48.6968 290.696 48.6968 291.32C48.6968 291.848 48.5528 292.31 48.2648 292.706C47.9768 293.09 47.5688 293.39 47.0408 293.606C46.5248 293.81 45.9128 293.912 45.2048 293.912ZM57.8638 293.75L54.6058 285.002H56.1358L58.8178 292.67H58.3858L61.1578 285.002H62.3998L65.1178 292.67H64.7038L67.4218 285.002H68.8798L65.6038 293.75H64.2178L61.3558 285.884H62.1298L59.2678 293.75H57.8638ZM70.4966 282.824V281.186H72.2966V282.824H70.4966ZM70.6766 293.75V285.002H72.1346V293.75H70.6766ZM78.3702 293.912C77.3382 293.912 76.5642 293.636 76.0482 293.084C75.5322 292.532 75.2742 291.746 75.2742 290.726V286.136H73.5642V285.002H75.2742V282.32H76.7322V285.002H79.5042V286.136H76.7322V290.582C76.7322 291.266 76.8762 291.788 77.1642 292.148C77.4522 292.496 77.9202 292.67 78.5682 292.67C78.7602 292.67 78.9522 292.646 79.1442 292.598C79.3362 292.55 79.5102 292.502 79.6662 292.454L79.9182 293.57C79.7622 293.654 79.5342 293.732 79.2342 293.804C78.9342 293.876 78.6462 293.912 78.3702 293.912ZM81.1532 293.75V281.06H82.6112V286.946H82.3772C82.6292 286.25 83.0372 285.728 83.6012 285.38C84.1772 285.02 84.8372 284.84 85.5812 284.84C86.2772 284.84 86.8532 284.966 87.3092 285.218C87.7772 285.47 88.1252 285.854 88.3532 286.37C88.5812 286.874 88.6952 287.516 88.6952 288.296V293.75H87.2372V288.386C87.2372 287.846 87.1652 287.402 87.0212 287.054C86.8892 286.706 86.6732 286.448 86.3732 286.28C86.0852 286.112 85.7072 286.028 85.2392 286.028C84.7112 286.028 84.2492 286.142 83.8532 286.37C83.4572 286.598 83.1512 286.916 82.9352 287.324C82.7192 287.732 82.6112 288.212 82.6112 288.764V293.75H81.1532ZM99.9487 293.912C99.0247 293.912 98.2267 293.732 97.5547 293.372C96.8947 293 96.3787 292.478 96.0067 291.806C95.6467 291.134 95.4667 290.33 95.4667 289.394C95.4667 288.482 95.6467 287.69 96.0067 287.018C96.3667 286.334 96.8587 285.8 97.4827 285.416C98.1187 285.032 98.8507 284.84 99.6787 284.84C100.471 284.84 101.149 285.014 101.713 285.362C102.277 285.71 102.709 286.202 103.009 286.838C103.321 287.474 103.477 288.236 103.477 289.124V289.682H96.5827V288.728H102.505L102.217 288.962C102.217 288.002 102.001 287.258 101.569 286.73C101.149 286.19 100.531 285.92 99.7147 285.92C99.1027 285.92 98.5807 286.064 98.1487 286.352C97.7287 286.628 97.4107 287.018 97.1947 287.522C96.9787 288.014 96.8707 288.59 96.8707 289.25V289.358C96.8707 290.09 96.9847 290.708 97.2127 291.212C97.4527 291.716 97.8067 292.1 98.2747 292.364C98.7427 292.616 99.3007 292.742 99.9487 292.742C100.465 292.742 100.963 292.664 101.443 292.508C101.935 292.34 102.397 292.07 102.829 291.698L103.333 292.724C102.937 293.084 102.433 293.372 101.821 293.588C101.209 293.804 100.585 293.912 99.9487 293.912ZM106.055 293.75V286.136H104.327V285.002H106.451L106.055 285.38V284.696C106.055 283.532 106.343 282.65 106.919 282.05C107.507 281.45 108.407 281.114 109.619 281.042L110.321 281.006L110.447 282.122L109.619 282.176C109.127 282.212 108.725 282.32 108.413 282.5C108.101 282.68 107.873 282.938 107.729 283.274C107.585 283.61 107.513 284.024 107.513 284.516V285.272L107.297 285.002H110.033V286.136H107.513V293.75H106.055ZM111.768 293.75V286.136H110.04V285.002H112.164L111.768 285.38V284.696C111.768 283.532 112.056 282.65 112.632 282.05C113.22 281.45 114.12 281.114 115.332 281.042L115.998 281.006L116.088 282.14L115.332 282.176C114.84 282.2 114.438 282.308 114.126 282.5C113.814 282.68 113.586 282.938 113.442 283.274C113.298 283.61 113.226 284.024 113.226 284.516V285.2V285.002H118.626V293.75H117.168V286.136H113.226V293.75H111.768ZM117.006 282.824V281.186H118.788V282.824H117.006ZM125.062 293.912C124.186 293.912 123.43 293.72 122.794 293.336C122.158 292.952 121.666 292.418 121.318 291.734C120.982 291.038 120.814 290.234 120.814 289.322C120.814 288.398 120.982 287.6 121.318 286.928C121.666 286.256 122.158 285.74 122.794 285.38C123.43 285.02 124.186 284.84 125.062 284.84C125.602 284.84 126.136 284.936 126.664 285.128C127.192 285.32 127.63 285.59 127.978 285.938L127.474 287C127.126 286.664 126.742 286.418 126.322 286.262C125.914 286.106 125.524 286.028 125.152 286.028C124.24 286.028 123.538 286.316 123.046 286.892C122.554 287.456 122.308 288.272 122.308 289.34C122.308 290.384 122.554 291.212 123.046 291.824C123.538 292.424 124.24 292.724 125.152 292.724C125.524 292.724 125.914 292.646 126.322 292.49C126.742 292.334 127.126 292.082 127.474 291.734L127.978 292.796C127.63 293.144 127.186 293.42 126.646 293.624C126.118 293.816 125.59 293.912 125.062 293.912ZM129.506 282.824V281.186H131.306V282.824H129.506ZM129.686 293.75V285.002H131.144V293.75H129.686ZM137.812 293.912C136.888 293.912 136.09 293.732 135.418 293.372C134.758 293 134.242 292.478 133.87 291.806C133.51 291.134 133.33 290.33 133.33 289.394C133.33 288.482 133.51 287.69 133.87 287.018C134.23 286.334 134.722 285.8 135.346 285.416C135.982 285.032 136.714 284.84 137.542 284.84C138.334 284.84 139.012 285.014 139.576 285.362C140.14 285.71 140.572 286.202 140.872 286.838C141.184 287.474 141.34 288.236 141.34 289.124V289.682H134.446V288.728H140.368L140.08 288.962C140.08 288.002 139.864 287.258 139.432 286.73C139.012 286.19 138.394 285.92 137.578 285.92C136.966 285.92 136.444 286.064 136.012 286.352C135.592 286.628 135.274 287.018 135.058 287.522C134.842 288.014 134.734 288.59 134.734 289.25V289.358C134.734 290.09 134.848 290.708 135.076 291.212C135.316 291.716 135.67 292.1 136.138 292.364C136.606 292.616 137.164 292.742 137.812 292.742C138.328 292.742 138.826 292.664 139.306 292.508C139.798 292.34 140.26 292.07 140.692 291.698L141.196 292.724C140.8 293.084 140.296 293.372 139.684 293.588C139.072 293.804 138.448 293.912 137.812 293.912ZM143.45 293.75V285.002H144.872V286.946H144.674C144.926 286.25 145.334 285.728 145.898 285.38C146.474 285.02 147.134 284.84 147.878 284.84C148.574 284.84 149.15 284.966 149.606 285.218C150.074 285.458 150.422 285.836 150.65 286.352C150.878 286.868 150.992 287.516 150.992 288.296V293.75H149.534V288.386C149.534 287.846 149.462 287.402 149.318 287.054C149.186 286.706 148.97 286.448 148.67 286.28C148.382 286.112 148.004 286.028 147.536 286.028C147.008 286.028 146.546 286.142 146.15 286.37C145.754 286.598 145.448 286.916 145.232 287.324C145.016 287.732 144.908 288.212 144.908 288.764V293.75H143.45ZM157.389 293.912C156.513 293.912 155.757 293.72 155.121 293.336C154.485 292.952 153.993 292.418 153.645 291.734C153.309 291.038 153.141 290.234 153.141 289.322C153.141 288.398 153.309 287.6 153.645 286.928C153.993 286.256 154.485 285.74 155.121 285.38C155.757 285.02 156.513 284.84 157.389 284.84C157.929 284.84 158.463 284.936 158.991 285.128C159.519 285.32 159.957 285.59 160.305 285.938L159.801 287C159.453 286.664 159.069 286.418 158.649 286.262C158.241 286.106 157.851 286.028 157.479 286.028C156.567 286.028 155.865 286.316 155.373 286.892C154.881 287.456 154.635 288.272 154.635 289.34C154.635 290.384 154.881 291.212 155.373 291.824C155.865 292.424 156.567 292.724 157.479 292.724C157.851 292.724 158.241 292.646 158.649 292.49C159.069 292.334 159.453 292.082 159.801 291.734L160.305 292.796C159.957 293.144 159.513 293.42 158.973 293.624C158.445 293.816 157.917 293.912 157.389 293.912ZM163.091 296.99L164.729 293.3V293.93L160.895 285.002H162.479L165.611 292.67H165.125L168.293 285.002H169.823L164.621 296.99H163.091ZM170.972 295.802L170.288 295.28C170.504 295.052 170.666 294.836 170.774 294.632C170.894 294.44 170.972 294.242 171.008 294.038C171.056 293.846 171.08 293.648 171.08 293.444L171.404 293.75H170.216V291.914H172.052V293.21C172.052 293.534 172.016 293.84 171.944 294.128C171.884 294.428 171.776 294.716 171.62 294.992C171.464 295.268 171.248 295.538 170.972 295.802ZM5.32 320.912C4.864 320.912 4.42 320.864 3.988 320.768C3.568 320.684 3.172 320.564 2.8 320.408C2.44 320.24 2.128 320.042 1.864 319.814L2.332 318.788C2.62 319.016 2.932 319.208 3.268 319.364C3.604 319.508 3.946 319.616 4.294 319.688C4.642 319.76 4.996 319.796 5.356 319.796C6.04 319.796 6.556 319.67 6.904 319.418C7.252 319.166 7.426 318.824 7.426 318.392C7.426 318.056 7.312 317.792 7.084 317.6C6.856 317.396 6.496 317.24 6.004 317.132L4.366 316.772C3.61 316.616 3.046 316.346 2.674 315.962C2.314 315.578 2.134 315.08 2.134 314.468C2.134 313.928 2.272 313.466 2.548 313.082C2.836 312.686 3.238 312.38 3.754 312.164C4.27 311.948 4.87 311.84 5.554 311.84C5.962 311.84 6.352 311.882 6.724 311.966C7.096 312.05 7.444 312.176 7.768 312.344C8.104 312.5 8.392 312.698 8.632 312.938L8.146 313.964C7.918 313.748 7.66 313.568 7.372 313.424C7.084 313.268 6.784 313.154 6.472 313.082C6.172 312.998 5.866 312.956 5.554 312.956C4.882 312.956 4.372 313.088 4.024 313.352C3.676 313.616 3.502 313.964 3.502 314.396C3.502 314.732 3.61 315.008 3.826 315.224C4.042 315.44 4.378 315.596 4.834 315.692L6.472 316.034C7.252 316.202 7.834 316.472 8.218 316.844C8.614 317.204 8.812 317.696 8.812 318.32C8.812 318.848 8.668 319.31 8.38 319.706C8.092 320.09 7.684 320.39 7.156 320.606C6.64 320.81 6.028 320.912 5.32 320.912ZM14.976 320.912C14.052 320.912 13.254 320.732 12.582 320.372C11.922 320 11.406 319.478 11.034 318.806C10.674 318.134 10.494 317.33 10.494 316.394C10.494 315.482 10.674 314.69 11.034 314.018C11.394 313.334 11.886 312.8 12.51 312.416C13.146 312.032 13.878 311.84 14.706 311.84C15.498 311.84 16.176 312.014 16.74 312.362C17.304 312.71 17.736 313.202 18.036 313.838C18.348 314.474 18.504 315.236 18.504 316.124V316.682H11.61V315.728H17.532L17.244 315.962C17.244 315.002 17.028 314.258 16.596 313.73C16.176 313.19 15.558 312.92 14.742 312.92C14.13 312.92 13.608 313.064 13.176 313.352C12.756 313.628 12.438 314.018 12.222 314.522C12.006 315.014 11.898 315.59 11.898 316.25V316.358C11.898 317.09 12.012 317.708 12.24 318.212C12.48 318.716 12.834 319.1 13.302 319.364C13.77 319.616 14.328 319.742 14.976 319.742C15.492 319.742 15.99 319.664 16.47 319.508C16.962 319.34 17.424 319.07 17.856 318.698L18.36 319.724C17.964 320.084 17.46 320.372 16.848 320.588C16.236 320.804 15.612 320.912 14.976 320.912ZM24.3221 320.912C23.4461 320.912 22.6901 320.72 22.0541 320.336C21.4181 319.952 20.9261 319.418 20.5781 318.734C20.2421 318.038 20.0741 317.234 20.0741 316.322C20.0741 315.398 20.2421 314.6 20.5781 313.928C20.9261 313.256 21.4181 312.74 22.0541 312.38C22.6901 312.02 23.4461 311.84 24.3221 311.84C24.8621 311.84 25.3961 311.936 25.9241 312.128C26.4521 312.32 26.8901 312.59 27.2381 312.938L26.7341 314C26.3861 313.664 26.0021 313.418 25.5821 313.262C25.1741 313.106 24.7841 313.028 24.4121 313.028C23.5001 313.028 22.7981 313.316 22.3061 313.892C21.8141 314.456 21.5681 315.272 21.5681 316.34C21.5681 317.384 21.8141 318.212 22.3061 318.824C22.7981 319.424 23.5001 319.724 24.4121 319.724C24.7841 319.724 25.1741 319.646 25.5821 319.49C26.0021 319.334 26.3861 319.082 26.7341 318.734L27.2381 319.796C26.8901 320.144 26.4461 320.42 25.9061 320.624C25.3781 320.816 24.8501 320.912 24.3221 320.912ZM32.0421 320.912C31.3341 320.912 30.7461 320.786 30.2781 320.534C29.8221 320.27 29.4741 319.88 29.2341 319.364C29.0061 318.848 28.8921 318.206 28.8921 317.438V312.002H30.3501V317.42C30.3501 317.936 30.4161 318.368 30.5481 318.716C30.6921 319.052 30.9141 319.304 31.2141 319.472C31.5141 319.628 31.8861 319.706 32.3301 319.706C32.8341 319.706 33.2721 319.592 33.6441 319.364C34.0161 319.136 34.3101 318.818 34.5261 318.41C34.7421 318.002 34.8501 317.522 34.8501 316.97V312.002H36.3081V320.75H34.8861V318.734H35.1201C34.8801 319.442 34.4841 319.982 33.9321 320.354C33.3921 320.726 32.7621 320.912 32.0421 320.912ZM39.036 320.75V312.002H40.458V314.072H40.278C40.482 313.364 40.836 312.83 41.34 312.47C41.844 312.098 42.51 311.882 43.338 311.822L43.86 311.768L43.968 313.028L43.05 313.136C42.234 313.208 41.604 313.472 41.16 313.928C40.728 314.372 40.512 314.984 40.512 315.764V320.75H39.036ZM45.3071 309.824V308.186H47.1071V309.824H45.3071ZM45.4871 320.75V312.002H46.9451V320.75H45.4871ZM53.1807 320.912C52.1487 320.912 51.3747 320.636 50.8587 320.084C50.3427 319.532 50.0847 318.746 50.0847 317.726V313.136H48.3747V312.002H50.0847V309.32H51.5427V312.002H54.3147V313.136H51.5427V317.582C51.5427 318.266 51.6867 318.788 51.9747 319.148C52.2627 319.496 52.7307 319.67 53.3787 319.67C53.5707 319.67 53.7627 319.646 53.9547 319.598C54.1467 319.55 54.3207 319.502 54.4767 319.454L54.7287 320.57C54.5727 320.654 54.3447 320.732 54.0447 320.804C53.7447 320.876 53.4567 320.912 53.1807 320.912ZM57.0772 323.99L58.7152 320.3V320.93L54.8812 312.002H56.4652L59.5972 319.67H59.1112L62.2792 312.002H63.8092L58.6072 323.99H57.0772ZM64.9584 322.802L64.2744 322.28C64.4904 322.052 64.6524 321.836 64.7604 321.632C64.8804 321.44 64.9584 321.242 64.9944 321.038C65.0424 320.846 65.0664 320.648 65.0664 320.444L65.3904 320.75H64.2024V318.914H66.0384V320.21C66.0384 320.534 66.0024 320.84 65.9304 321.128C65.8704 321.428 65.7624 321.716 65.6064 321.992C65.4504 322.268 65.2344 322.538 64.9584 322.802ZM75.9091 320.912C75.3091 320.912 74.7691 320.798 74.2891 320.57C73.8211 320.33 73.4491 320.006 73.1731 319.598C72.8971 319.19 72.7591 318.734 72.7591 318.23C72.7591 317.582 72.9211 317.072 73.2451 316.7C73.5811 316.328 74.1271 316.064 74.8831 315.908C75.6511 315.752 76.6951 315.674 78.0151 315.674H78.8251V316.628H78.0331C77.3011 316.628 76.6891 316.652 76.1971 316.7C75.7051 316.748 75.3151 316.832 75.0271 316.952C74.7391 317.072 74.5351 317.228 74.4151 317.42C74.2951 317.612 74.2351 317.852 74.2351 318.14C74.2351 318.632 74.4031 319.034 74.7391 319.346C75.0871 319.658 75.5551 319.814 76.1431 319.814C76.6231 319.814 77.0431 319.7 77.4031 319.472C77.7751 319.244 78.0631 318.932 78.2671 318.536C78.4831 318.14 78.5911 317.684 78.5911 317.168V315.116C78.5911 314.372 78.4411 313.838 78.1411 313.514C77.8411 313.178 77.3491 313.01 76.6651 313.01C76.1371 313.01 75.6271 313.088 75.1351 313.244C74.6431 313.388 74.1391 313.628 73.6231 313.964L73.1191 312.902C73.4311 312.686 73.7851 312.5 74.1811 312.344C74.5771 312.176 74.9911 312.05 75.4231 311.966C75.8551 311.882 76.2691 311.84 76.6651 311.84C77.4211 311.84 78.0451 311.966 78.5371 312.218C79.0291 312.458 79.3951 312.83 79.6351 313.334C79.8751 313.826 79.9951 314.462 79.9951 315.242V320.75H78.6271V318.716H78.7891C78.6931 319.172 78.5071 319.562 78.2311 319.886C77.9671 320.21 77.6371 320.462 77.2411 320.642C76.8451 320.822 76.4011 320.912 75.9091 320.912ZM82.7 320.75V312.002H84.122V313.946H83.924C84.176 313.25 84.584 312.728 85.148 312.38C85.724 312.02 86.384 311.84 87.128 311.84C87.824 311.84 88.4 311.966 88.856 312.218C89.324 312.458 89.672 312.836 89.9 313.352C90.128 313.868 90.242 314.516 90.242 315.296V320.75H88.784V315.386C88.784 314.846 88.712 314.402 88.568 314.054C88.436 313.706 88.22 313.448 87.92 313.28C87.632 313.112 87.254 313.028 86.786 313.028C86.258 313.028 85.796 313.142 85.4 313.37C85.004 313.598 84.698 313.916 84.482 314.324C84.266 314.732 84.158 315.212 84.158 315.764V320.75H82.7ZM96.2605 320.912C95.4805 320.912 94.7965 320.726 94.2085 320.354C93.6325 319.982 93.1825 319.46 92.8585 318.788C92.5465 318.104 92.3905 317.3 92.3905 316.376C92.3905 315.44 92.5465 314.636 92.8585 313.964C93.1825 313.28 93.6325 312.758 94.2085 312.398C94.7965 312.026 95.4805 311.84 96.2605 311.84C97.0525 311.84 97.7305 312.038 98.2945 312.434C98.8585 312.83 99.2365 313.364 99.4285 314.036H99.2305V308.06H100.689V320.75H99.2665V318.662H99.4465C99.2545 319.346 98.8705 319.892 98.2945 320.3C97.7305 320.708 97.0525 320.912 96.2605 320.912ZM96.5665 319.742C97.3945 319.742 98.0485 319.454 98.5285 318.878C99.0205 318.29 99.2665 317.456 99.2665 316.376C99.2665 315.284 99.0205 314.45 98.5285 313.874C98.0485 313.298 97.3945 313.01 96.5665 313.01C95.7505 313.01 95.0965 313.298 94.6045 313.874C94.1125 314.45 93.8665 315.284 93.8665 316.376C93.8665 317.456 94.1125 318.29 94.6045 318.878C95.0965 319.454 95.7505 319.742 96.5665 319.742ZM111 320.912C110.544 320.912 110.1 320.864 109.668 320.768C109.248 320.684 108.852 320.564 108.48 320.408C108.12 320.24 107.808 320.042 107.544 319.814L108.012 318.788C108.3 319.016 108.612 319.208 108.948 319.364C109.284 319.508 109.626 319.616 109.974 319.688C110.322 319.76 110.676 319.796 111.036 319.796C111.72 319.796 112.236 319.67 112.584 319.418C112.932 319.166 113.106 318.824 113.106 318.392C113.106 318.056 112.992 317.792 112.764 317.6C112.536 317.396 112.176 317.24 111.684 317.132L110.046 316.772C109.29 316.616 108.726 316.346 108.354 315.962C107.994 315.578 107.814 315.08 107.814 314.468C107.814 313.928 107.952 313.466 108.228 313.082C108.516 312.686 108.918 312.38 109.434 312.164C109.95 311.948 110.55 311.84 111.234 311.84C111.642 311.84 112.032 311.882 112.404 311.966C112.776 312.05 113.124 312.176 113.448 312.344C113.784 312.5 114.072 312.698 114.312 312.938L113.826 313.964C113.598 313.748 113.34 313.568 113.052 313.424C112.764 313.268 112.464 313.154 112.152 313.082C111.852 312.998 111.546 312.956 111.234 312.956C110.562 312.956 110.052 313.088 109.704 313.352C109.356 313.616 109.182 313.964 109.182 314.396C109.182 314.732 109.29 315.008 109.506 315.224C109.722 315.44 110.058 315.596 110.514 315.692L112.152 316.034C112.932 316.202 113.514 316.472 113.898 316.844C114.294 317.204 114.492 317.696 114.492 318.32C114.492 318.848 114.348 319.31 114.06 319.706C113.772 320.09 113.364 320.39 112.836 320.606C112.32 320.81 111.708 320.912 111 320.912ZM120.422 320.912C119.546 320.912 118.79 320.72 118.154 320.336C117.518 319.952 117.026 319.418 116.678 318.734C116.342 318.038 116.174 317.234 116.174 316.322C116.174 315.398 116.342 314.6 116.678 313.928C117.026 313.256 117.518 312.74 118.154 312.38C118.79 312.02 119.546 311.84 120.422 311.84C120.962 311.84 121.496 311.936 122.024 312.128C122.552 312.32 122.99 312.59 123.338 312.938L122.834 314C122.486 313.664 122.102 313.418 121.682 313.262C121.274 313.106 120.884 313.028 120.512 313.028C119.6 313.028 118.898 313.316 118.406 313.892C117.914 314.456 117.668 315.272 117.668 316.34C117.668 317.384 117.914 318.212 118.406 318.824C118.898 319.424 119.6 319.724 120.512 319.724C120.884 319.724 121.274 319.646 121.682 319.49C122.102 319.334 122.486 319.082 122.834 318.734L123.338 319.796C122.99 320.144 122.546 320.42 122.006 320.624C121.478 320.816 120.95 320.912 120.422 320.912ZM127.729 320.912C127.129 320.912 126.589 320.798 126.109 320.57C125.641 320.33 125.269 320.006 124.993 319.598C124.717 319.19 124.579 318.734 124.579 318.23C124.579 317.582 124.741 317.072 125.065 316.7C125.401 316.328 125.947 316.064 126.703 315.908C127.471 315.752 128.515 315.674 129.835 315.674H130.645V316.628H129.853C129.121 316.628 128.509 316.652 128.017 316.7C127.525 316.748 127.135 316.832 126.847 316.952C126.559 317.072 126.355 317.228 126.235 317.42C126.115 317.612 126.055 317.852 126.055 318.14C126.055 318.632 126.223 319.034 126.559 319.346C126.907 319.658 127.375 319.814 127.963 319.814C128.443 319.814 128.863 319.7 129.223 319.472C129.595 319.244 129.883 318.932 130.087 318.536C130.303 318.14 130.411 317.684 130.411 317.168V315.116C130.411 314.372 130.261 313.838 129.961 313.514C129.661 313.178 129.169 313.01 128.485 313.01C127.957 313.01 127.447 313.088 126.955 313.244C126.463 313.388 125.959 313.628 125.443 313.964L124.939 312.902C125.251 312.686 125.605 312.5 126.001 312.344C126.397 312.176 126.811 312.05 127.243 311.966C127.675 311.882 128.089 311.84 128.485 311.84C129.241 311.84 129.865 311.966 130.357 312.218C130.849 312.458 131.215 312.83 131.455 313.334C131.695 313.826 131.815 314.462 131.815 315.242V320.75H130.447V318.716H130.609C130.513 319.172 130.327 319.562 130.051 319.886C129.787 320.21 129.457 320.462 129.061 320.642C128.665 320.822 128.221 320.912 127.729 320.912ZM137.202 320.912C136.314 320.912 135.642 320.648 135.186 320.12C134.742 319.592 134.52 318.836 134.52 317.852V308.06H135.978V317.744C135.978 318.164 136.032 318.518 136.14 318.806C136.26 319.094 136.434 319.31 136.662 319.454C136.89 319.598 137.172 319.67 137.508 319.67C137.652 319.67 137.79 319.664 137.922 319.652C138.066 319.628 138.198 319.598 138.318 319.562L138.282 320.786C138.09 320.822 137.904 320.852 137.724 320.876C137.556 320.9 137.382 320.912 137.202 320.912ZM142.601 320.912C142.001 320.912 141.461 320.798 140.981 320.57C140.513 320.33 140.141 320.006 139.865 319.598C139.589 319.19 139.451 318.734 139.451 318.23C139.451 317.582 139.613 317.072 139.937 316.7C140.273 316.328 140.819 316.064 141.575 315.908C142.343 315.752 143.387 315.674 144.707 315.674H145.517V316.628H144.725C143.993 316.628 143.381 316.652 142.889 316.7C142.397 316.748 142.007 316.832 141.719 316.952C141.431 317.072 141.227 317.228 141.107 317.42C140.987 317.612 140.927 317.852 140.927 318.14C140.927 318.632 141.095 319.034 141.431 319.346C141.779 319.658 142.247 319.814 142.835 319.814C143.315 319.814 143.735 319.7 144.095 319.472C144.467 319.244 144.755 318.932 144.959 318.536C145.175 318.14 145.283 317.684 145.283 317.168V315.116C145.283 314.372 145.133 313.838 144.833 313.514C144.533 313.178 144.041 313.01 143.357 313.01C142.829 313.01 142.319 313.088 141.827 313.244C141.335 313.388 140.831 313.628 140.315 313.964L139.811 312.902C140.123 312.686 140.477 312.5 140.873 312.344C141.269 312.176 141.683 312.05 142.115 311.966C142.547 311.882 142.961 311.84 143.357 311.84C144.113 311.84 144.737 311.966 145.229 312.218C145.721 312.458 146.087 312.83 146.327 313.334C146.567 313.826 146.687 314.462 146.687 315.242V320.75H145.319V318.716H145.481C145.385 319.172 145.199 319.562 144.923 319.886C144.659 320.21 144.329 320.462 143.933 320.642C143.537 320.822 143.093 320.912 142.601 320.912ZM153.819 320.912C153.027 320.912 152.343 320.708 151.767 320.3C151.203 319.892 150.825 319.346 150.633 318.662H150.813V320.75H149.391V308.06H150.849V314.036H150.633C150.837 313.364 151.221 312.83 151.785 312.434C152.349 312.038 153.027 311.84 153.819 311.84C154.611 311.84 155.295 312.026 155.871 312.398C156.447 312.758 156.891 313.28 157.203 313.964C157.527 314.636 157.689 315.44 157.689 316.376C157.689 317.3 157.527 318.104 157.203 318.788C156.891 319.46 156.441 319.982 155.853 320.354C155.277 320.726 154.599 320.912 153.819 320.912ZM153.513 319.742C154.341 319.742 154.995 319.454 155.475 318.878C155.967 318.29 156.213 317.456 156.213 316.376C156.213 315.284 155.967 314.45 155.475 313.874C154.995 313.298 154.341 313.01 153.513 313.01C152.697 313.01 152.043 313.298 151.551 313.874C151.059 314.45 150.813 315.284 150.813 316.376C150.813 317.456 151.059 318.29 151.551 318.878C152.043 319.454 152.697 319.742 153.513 319.742ZM159.706 309.824V308.186H161.506V309.824H159.706ZM159.886 320.75V312.002H161.344V320.75H159.886ZM166.751 320.912C165.863 320.912 165.191 320.648 164.735 320.12C164.291 319.592 164.069 318.836 164.069 317.852V308.06H165.527V317.744C165.527 318.164 165.581 318.518 165.689 318.806C165.809 319.094 165.983 319.31 166.211 319.454C166.439 319.598 166.721 319.67 167.057 319.67C167.201 319.67 167.339 319.664 167.471 319.652C167.615 319.628 167.747 319.598 167.867 319.562L167.831 320.786C167.639 320.822 167.453 320.852 167.273 320.876C167.105 320.9 166.931 320.912 166.751 320.912ZM169.215 309.824V308.186H171.015V309.824H169.215ZM169.395 320.75V312.002H170.853V320.75H169.395ZM177.089 320.912C176.057 320.912 175.283 320.636 174.767 320.084C174.251 319.532 173.993 318.746 173.993 317.726V313.136H172.283V312.002H173.993V309.32H175.451V312.002H178.223V313.136H175.451V317.582C175.451 318.266 175.595 318.788 175.883 319.148C176.171 319.496 176.639 319.67 177.287 319.67C177.479 319.67 177.671 319.646 177.863 319.598C178.055 319.55 178.229 319.502 178.385 319.454L178.637 320.57C178.481 320.654 178.253 320.732 177.953 320.804C177.653 320.876 177.365 320.912 177.089 320.912ZM180.985 323.99L182.623 320.3V320.93L178.789 312.002H180.373L183.505 319.67H183.019L186.187 312.002H187.717L182.515 323.99H180.985ZM188.111 320.75V318.914H189.947V320.75H188.111Z" fill="#6D6D6D"/>
<path d="M65.6287 1.75H33.7158C27.7253 1.75 22.1992 5.00047 19.2 10.2683L3.2435 38.3766C0.252165 43.6525 0.252165 50.1452 3.2435 55.4211L19.2 83.5294C22.1913 88.8052 27.7253 92.0477 33.7158 92.0477H65.6287C71.6192 92.0477 77.1453 88.7972 80.1446 83.5294L96.101 55.4211C99.0923 50.1452 99.0923 43.6525 96.101 38.3766L80.1446 10.2683C77.1532 4.99247 71.6192 1.75 65.6287 1.75Z" fill="white" stroke="#7141B1" stroke-width="1.5" stroke-miterlimit="10"/>
<path d="M38.1886 29.7574L36.4286 31.5149L39.0474 34.1324L40.8049 32.3749L38.1886 29.7574ZM61.1574 29.7574L58.5386 32.3749L60.2974 34.1324L62.9149 31.5162L61.1574 29.7574ZM49.6724 30.5374C49.2599 30.5408 48.8432 30.5674 48.4224 30.6174H48.3849C43.3149 31.1987 39.2799 35.2949 38.5786 40.3424C38.0186 44.4049 39.6936 48.0887 42.4849 50.4612C43.6265 51.4358 44.3987 52.7728 44.6724 54.2487V61.7487H47.5224C47.9574 62.4949 48.7511 62.9987 49.6724 62.9987C50.5936 62.9987 51.3874 62.4949 51.8224 61.7487H54.6724V56.7487H54.7899V55.2637C54.7899 53.4312 55.7424 51.5837 57.2899 50.1474C59.3599 48.0749 60.9224 45.1312 60.9224 41.7499C60.9224 35.5749 55.8399 30.4799 49.6724 30.5374ZM49.6724 33.0374C54.5036 32.9699 58.4224 36.9249 58.4224 41.7499C58.4224 44.3674 57.2099 46.6724 55.5311 48.3499L55.5711 48.3899C53.9035 49.9288 52.8249 52.0012 52.5211 54.2499H47.0536C46.7786 52.1074 45.8599 50.0337 44.1236 48.5462C41.9149 46.6712 40.5986 43.8462 41.0386 40.6562C41.5849 36.7187 44.7799 33.5524 48.6949 33.1187C49.0181 33.0739 49.3436 33.0472 49.6699 33.0387L49.6724 33.0374ZM32.1724 41.7499V44.2499H35.9224V41.7499H32.1724ZM63.4224 41.7499V44.2499H67.1724V41.7499H63.4224ZM39.0474 51.8674L36.4299 54.4837L38.1886 56.2424L40.8036 53.6249L39.0474 51.8674ZM60.2974 51.8674L58.5399 53.6249L61.1561 56.2424L62.9149 54.4837L60.2974 51.8674ZM47.1724 56.7499H52.1724V59.2499H47.1724V56.7499Z" fill="#7141B1"/>
</svg>
