<svg width="294" height="91" viewBox="0 0 294 91" fill="none" xmlns="http://www.w3.org/2000/svg">
<g filter="url(#filter0_d_183_10)">
<rect x="16" width="262" height="91" rx="5" fill="#F8FAFC"/>
<rect x="16.5" y="0.5" width="261" height="90" rx="4.5" stroke="#E3E3E3"/>
<g clip-path="url(#clip0_183_10)">
<path d="M160.281 21H133.719C127.247 21 122 26.2467 122 32.7188V59.2812C122 65.7533 127.247 71 133.719 71H160.281C166.753 71 172 65.7533 172 59.2812V32.7188C172 26.2467 166.753 21 160.281 21Z" fill="#E14E1D"/>
<path d="M131.375 28.4219L133.057 47.2877H154.68L153.954 55.3795L146.992 57.2619L140.043 55.3822L139.578 50.1865H133.316L134.212 60.2023L146.991 63.7516L159.786 60.2023L161.501 41.0498H138.762L138.192 34.6611H162.066L162.625 28.4219H131.375Z" fill="white"/>
<path d="M147 28.4219H131.375L133.057 47.2877H147V41.0498H138.762L138.192 34.6611H147V28.4219ZM147 57.2592L146.992 57.2619L140.043 55.3822L139.578 50.1865H133.316L134.212 60.2023L146.991 63.7516L147 63.7488L147 57.2592Z" fill="#EBEBEB"/>
</g>
</g>
<defs>
<filter id="filter0_d_183_10" x="0.2" y="-15.8" width="293.6" height="122.6" filterUnits="userSpaceOnUse" color-interpolation-filters="sRGB">
<feFlood flood-opacity="0" result="BackgroundImageFix"/>
<feColorMatrix in="SourceAlpha" type="matrix" values="0 0 0 0 0 0 0 0 0 0 0 0 0 0 0 0 0 0 127 0" result="hardAlpha"/>
<feOffset/>
<feGaussianBlur stdDeviation="7.9"/>
<feComposite in2="hardAlpha" operator="out"/>
<feColorMatrix type="matrix" values="0 0 0 0 0.790052 0 0 0 0 0.805443 0 0 0 0 0.820833 0 0 0 0.5 0"/>
<feBlend mode="normal" in2="BackgroundImageFix" result="effect1_dropShadow_183_10"/>
<feBlend mode="normal" in="SourceGraphic" in2="effect1_dropShadow_183_10" result="shape"/>
</filter>
<clipPath id="clip0_183_10">
<rect width="50" height="50" fill="white" transform="translate(122 21)"/>
</clipPath>
</defs>
</svg>
