<svg width="278" height="91" viewBox="0 0 278 91" fill="none" xmlns="http://www.w3.org/2000/svg">
<g filter="url(#filter0_d_183_2)">
<rect width="262" height="91" rx="5" fill="#F8FAFC"/>
<rect x="0.5" y="0.5" width="261" height="90" rx="4.5" stroke="#E3E3E3"/>
<path d="M130.82 24.2813C119.727 24.2813 120.428 29.0781 120.428 29.0781V34.0625H130.978V35.625H116.227C116.227 35.625 109.125 34.75 109.125 46.0078C109.125 57.2656 115.395 56.8078 115.395 56.8078H119.016V51.5563C119.016 51.5563 118.812 45.286 125.109 45.286H135.675C135.675 45.286 141.569 45.3797 141.569 39.5797V30.0625C141.569 30.0625 142.463 24.2625 130.878 24.2625L130.82 24.2813ZM124.989 27.6203C125.364 27.6109 125.734 27.7128 126.051 27.9133C126.368 28.1139 126.618 28.4039 126.771 28.7468C126.923 29.0897 126.97 29.4701 126.906 29.8398C126.842 30.2094 126.67 30.5519 126.411 30.8238C126.153 31.0956 125.82 31.2847 125.454 31.3671C125.088 31.4496 124.705 31.4216 124.355 31.2867C124.005 31.1519 123.703 30.9163 123.487 30.6096C123.27 30.303 123.15 29.9391 123.141 29.5641V29.5328C123.141 29.0297 123.34 28.5473 123.696 28.1915C124.052 27.8358 124.534 27.636 125.038 27.636L124.989 27.6203Z" fill="url(#paint0_linear_183_2)"/>
<path d="M131.133 67.7344C142.227 67.7344 141.525 62.9219 141.525 62.9219V57.9531H130.977V56.3906H145.774C145.774 56.3906 152.875 57.1844 152.875 45.9922C152.875 34.8 146.605 35.1922 146.605 35.1922H142.938V40.375C142.938 40.375 143.141 46.6453 136.844 46.6453H126.274C126.274 46.6453 120.375 46.5562 120.375 52.3562V61.9375C120.375 61.9375 119.481 67.7375 131.066 67.7375H131.128L131.133 67.7344ZM136.964 64.3797C136.589 64.3891 136.22 64.2872 135.903 64.0866C135.585 63.8861 135.335 63.5961 135.183 63.2532C135.03 62.9103 134.983 62.5299 135.047 62.1602C135.111 61.7905 135.283 61.4481 135.542 61.1762C135.8 60.9044 136.134 60.7153 136.5 60.6328C136.866 60.5504 137.248 60.5784 137.598 60.7133C137.948 60.8481 138.25 61.0837 138.467 61.3904C138.683 61.697 138.803 62.0609 138.813 62.4359V62.4828C138.813 62.9859 138.613 63.4684 138.257 63.8241C137.901 64.1798 137.419 64.3797 136.916 64.3797H136.964Z" fill="url(#paint1_linear_183_2)"/>
</g>
<defs>
<filter id="filter0_d_183_2" x="-15.8" y="-15.8" width="293.6" height="122.6" filterUnits="userSpaceOnUse" color-interpolation-filters="sRGB">
<feFlood flood-opacity="0" result="BackgroundImageFix"/>
<feColorMatrix in="SourceAlpha" type="matrix" values="0 0 0 0 0 0 0 0 0 0 0 0 0 0 0 0 0 0 127 0" result="hardAlpha"/>
<feOffset/>
<feGaussianBlur stdDeviation="7.9"/>
<feComposite in2="hardAlpha" operator="out"/>
<feColorMatrix type="matrix" values="0 0 0 0 0.790052 0 0 0 0 0.805443 0 0 0 0 0.820833 0 0 0 0.5 0"/>
<feBlend mode="normal" in2="BackgroundImageFix" result="effect1_dropShadow_183_2"/>
<feBlend mode="normal" in="SourceGraphic" in2="effect1_dropShadow_183_2" result="shape"/>
</filter>
<linearGradient id="paint0_linear_183_2" x1="113.449" y1="28.5358" x2="134.209" y2="49.2492" gradientUnits="userSpaceOnUse">
<stop stop-color="#387EB8"/>
<stop offset="1" stop-color="#366994"/>
</linearGradient>
<linearGradient id="paint1_linear_183_2" x1="125.731" y1="42.029" x2="149.45" y2="62.7362" gradientUnits="userSpaceOnUse">
<stop stop-color="#FFE052"/>
<stop offset="1" stop-color="#FFC331"/>
</linearGradient>
</defs>
</svg>
